<svg version="1.1" viewBox="0.0 0.0 1108.0 471.0" fill="none" stroke="none" stroke-linecap="square" stroke-miterlimit="10" width="1108" height="471" xmlns:xlink="http://www.w3.org/1999/xlink" xmlns="http://www.w3.org/2000/svg"><path fill="#ffffff" d="M0 0L1108.0 0L1108.0 471.0L0 471.0L0 0Z" fill-rule="nonzero"/><path stroke="#333333" stroke-width="1.0" stroke-linecap="butt" d="M130.5 92.5L130.5 427.5" fill-rule="nonzero"/><path stroke="#cccccc" stroke-width="1.0" stroke-linecap="butt" d="M369.5 92.5L369.5 427.5" fill-rule="nonzero"/><path stroke="#cccccc" stroke-width="1.0" stroke-linecap="butt" d="M607.5 92.5L607.5 427.5" fill-rule="nonzero"/><path stroke="#cccccc" stroke-width="1.0" stroke-linecap="butt" d="M845.5 92.5L845.5 427.5" fill-rule="nonzero"/><path stroke="#cccccc" stroke-width="1.0" stroke-linecap="butt" d="M1084.5 92.5L1084.5 427.5" fill-rule="nonzero"/><clipPath id="id_0"><path d="M130.55 92.95L1084.45 92.95L1084.45 427.45L130.55 427.45L130.55 92.95Z" clip-rule="nonzero"/></clipPath><path stroke="#000000" stroke-width="2.0" stroke-linecap="butt" stroke-opacity="0.0" clip-path="url(#id_0)" d="M131.0 134.0L131.0 116.0L500.0 116.0C501.10458 116.0 502.0 116.89543 502.0 118.0L502.0 132.0C502.0 133.10457 501.10458 134.0 500.0 134.0Z" fill-rule="nonzero"/><path fill="#4285f4" clip-path="url(#id_0)" d="M131.0 134.0L131.0 116.0L500.0 116.0C501.10458 116.0 502.0 116.89543 502.0 118.0L502.0 132.0C502.0 133.10457 501.10458 134.0 500.0 134.0Z" fill-rule="nonzero"/><path stroke="#000000" stroke-width="2.0" stroke-linecap="butt" stroke-opacity="0.0" clip-path="url(#id_0)" d="M131.0 197.0L131.0 179.0L363.0 179.0C364.10458 179.0 365.0 179.89543 365.0 181.0L365.0 195.0C365.0 196.10457 364.10458 197.0 363.0 197.0Z" fill-rule="nonzero"/><path fill="#4285f4" clip-path="url(#id_0)" d="M131.0 197.0L131.0 179.0L363.0 179.0C364.10458 179.0 365.0 179.89543 365.0 181.0L365.0 195.0C365.0 196.10457 364.10458 197.0 363.0 197.0Z" fill-rule="nonzero"/><path stroke="#000000" stroke-width="2.0" stroke-linecap="butt" stroke-opacity="0.0" clip-path="url(#id_0)" d="M131.0 259.0L131.0 241.0L144.0 241.0C145.10457 241.0 146.0 241.89543 146.0 243.0L146.0 257.0C146.0 258.10458 145.10457 259.0 144.0 259.0Z" fill-rule="nonzero"/><path fill="#4285f4" clip-path="url(#id_0)" d="M131.0 259.0L131.0 241.0L144.0 241.0C145.10457 241.0 146.0 241.89543 146.0 243.0L146.0 257.0C146.0 258.10458 145.10457 259.0 144.0 259.0Z" fill-rule="nonzero"/><path stroke="#000000" stroke-width="2.0" stroke-linecap="butt" stroke-opacity="0.0" clip-path="url(#id_0)" d="M131.0 322.0L131.0 304.0L133.0 304.0C134.10457 304.0 135.0 304.89542 135.0 306.0L135.0 320.0C135.0 321.10458 134.10457 322.0 133.0 322.0Z" fill-rule="nonzero"/><path fill="#4285f4" clip-path="url(#id_0)" d="M131.0 322.0L131.0 304.0L133.0 304.0C134.10457 304.0 135.0 304.89542 135.0 306.0L135.0 320.0C135.0 321.10458 134.10457 322.0 133.0 322.0Z" fill-rule="nonzero"/><path stroke="#000000" stroke-width="2.0" stroke-linecap="butt" stroke-opacity="0.0" clip-path="url(#id_0)" d="M131.0 384.0L131.0 366.0L183.0 366.0C184.10457 366.0 185.0 366.89542 185.0 368.0L185.0 382.0C185.0 383.10458 184.10457 384.0 183.0 384.0Z" fill-rule="nonzero"/><path fill="#4285f4" clip-path="url(#id_0)" d="M131.0 384.0L131.0 366.0L183.0 366.0C184.10457 366.0 185.0 366.89542 185.0 368.0L185.0 382.0C185.0 383.10458 184.10457 384.0 183.0 384.0Z" fill-rule="nonzero"/><path stroke="#000000" stroke-width="2.0" stroke-linecap="butt" stroke-opacity="0.0" clip-path="url(#id_0)" d="M131.0 154.0L131.0 136.0L501.0 136.0C502.10458 136.0 503.0 136.89543 503.0 138.0L503.0 152.0C503.0 153.10457 502.10458 154.0 501.0 154.0Z" fill-rule="nonzero"/><path fill="#ea4335" clip-path="url(#id_0)" d="M131.0 154.0L131.0 136.0L501.0 136.0C502.10458 136.0 503.0 136.89543 503.0 138.0L503.0 152.0C503.0 153.10457 502.10458 154.0 501.0 154.0Z" fill-rule="nonzero"/><path stroke="#000000" stroke-width="2.0" stroke-linecap="butt" stroke-opacity="0.0" clip-path="url(#id_0)" d="M131.0 217.0L131.0 199.0L559.0 199.0C560.10455 199.0 561.0 199.89543 561.0 201.0L561.0 215.0C561.0 216.10457 560.10455 217.0 559.0 217.0Z" fill-rule="nonzero"/><path fill="#ea4335" clip-path="url(#id_0)" d="M131.0 217.0L131.0 199.0L559.0 199.0C560.10455 199.0 561.0 199.89543 561.0 201.0L561.0 215.0C561.0 216.10457 560.10455 217.0 559.0 217.0Z" fill-rule="nonzero"/><path stroke="#000000" stroke-width="2.0" stroke-linecap="butt" stroke-opacity="0.0" clip-path="url(#id_0)" d="M131.0 279.0L131.0 261.0L139.0 261.0C140.10457 261.0 141.0 261.89542 141.0 263.0L141.0 277.0C141.0 278.10458 140.10457 279.0 139.0 279.0Z" fill-rule="nonzero"/><path fill="#ea4335" clip-path="url(#id_0)" d="M131.0 279.0L131.0 261.0L139.0 261.0C140.10457 261.0 141.0 261.89542 141.0 263.0L141.0 277.0C141.0 278.10458 140.10457 279.0 139.0 279.0Z" fill-rule="nonzero"/><path stroke="#000000" stroke-width="2.0" stroke-linecap="butt" stroke-opacity="0.0" clip-path="url(#id_0)" d="M131.0 342.0L131.0 324.0L910.0 324.0C911.10455 324.0 912.0 324.89542 912.0 326.0L912.0 340.0C912.0 341.10458 911.10455 342.0 910.0 342.0Z" fill-rule="nonzero"/><path fill="#ea4335" clip-path="url(#id_0)" d="M131.0 342.0L131.0 324.0L910.0 324.0C911.10455 324.0 912.0 324.89542 912.0 326.0L912.0 340.0C912.0 341.10458 911.10455 342.0 910.0 342.0Z" fill-rule="nonzero"/><path stroke="#000000" stroke-width="2.0" stroke-linecap="butt" stroke-opacity="0.0" clip-path="url(#id_0)" d="M131.0 404.0L131.0 386.0L131.5 386.0C131.77614 386.0 132.0 386.22385 132.0 386.5L132.0 403.5C132.0 403.77615 131.77614 404.0 131.5 404.0Z" fill-rule="nonzero"/><path fill="#ea4335" clip-path="url(#id_0)" d="M131.0 404.0L131.0 386.0L131.5 386.0C131.77614 386.0 132.0 386.22385 132.0 386.5L132.0 403.5C132.0 403.77615 131.77614 404.0 131.5 404.0Z" fill-rule="nonzero"/><path fill="#000000" d="M98.31563 141.5439L98.31563 138.49702Q98.06563 138.84077 97.6125 139.07515Q97.175 139.2939 96.675 139.2939Q95.56563 139.2939 94.76875 138.4189Q93.97188 137.52827 93.97188 135.9814Q93.97188 135.0439 94.3 134.30952Q94.62813 133.55952 95.2375 133.18452Q95.8625 132.7939 96.59688 132.7939Q97.75313 132.7939 98.40938 133.76265L98.40938 132.93452L99.3625 132.93452L99.3625 141.5439L98.31563 141.5439ZM95.05 136.02827Q95.05 137.2314 95.55 137.82515Q96.06563 138.4189 96.76875 138.4189Q97.44063 138.4189 97.925 137.8564Q98.40938 137.27827 98.40938 136.12202Q98.40938 134.87202 97.89375 134.24702Q97.39375 133.62202 96.69063 133.62202Q96.01875 133.62202 95.53438 134.21577Q95.05 134.7939 95.05 136.02827ZM105.37813 139.15327L105.37813 138.37202Q104.78438 139.2939 103.64375 139.2939Q102.89375 139.2939 102.26875 138.88765Q101.64375 138.46577 101.3 137.7314Q100.95625 136.99702 100.95625 136.0439Q100.95625 135.12202 101.26875 134.3564Q101.58125 133.59077 102.20625 133.20015Q102.83125 132.7939 103.59688 132.7939Q104.15938 132.7939 104.59688 133.02827Q105.03438 133.26265 105.31563 133.63765L105.31563 130.55952L106.3625 130.55952L106.3625 139.15327L105.37813 139.15327ZM102.05 136.0439Q102.05 137.24702 102.55 137.84077Q103.05 138.4189 103.7375 138.4189Q104.425 138.4189 104.90938 137.8564Q105.39375 137.2939 105.39375 136.13765Q105.39375 134.8564 104.89375 134.26265Q104.40938 133.6689 103.69063 133.6689Q102.9875 133.6689 102.51875 134.24702Q102.05 134.80952 102.05 136.0439ZM109.31563 139.15327L108.33125 139.15327L108.33125 130.55952L109.39375 130.55952L109.39375 133.62202Q110.06563 132.7939 111.09688 132.7939Q111.675 132.7939 112.175 133.02827Q112.69063 133.24702 113.01875 133.6689Q113.3625 134.09077 113.55 134.68452Q113.7375 135.27827 113.7375 135.95015Q113.7375 137.5439 112.94063 138.4189Q112.14375 139.2939 111.05 139.2939Q109.94063 139.2939 109.31563 138.37202L109.31563 139.15327ZM109.3 135.99702Q109.3 137.1064 109.6125 137.6064Q110.1125 138.4189 110.95625 138.4189Q111.64375 138.4189 112.14375 137.82515Q112.65938 137.2314 112.65938 136.02827Q112.65938 134.80952 112.175 134.2314Q111.69063 133.65327 111.00313 133.65327Q110.31563 133.65327 109.8 134.26265Q109.3 134.8564 109.3 135.99702ZM115.34688 139.15327L115.34688 132.93452L116.28438 132.93452L116.28438 133.80952Q116.58125 133.34077 117.06563 133.07515Q117.55 132.7939 118.175 132.7939Q118.8625 132.7939 119.3 133.07515Q119.75313 133.3564 119.925 133.87202Q120.675 132.7939 121.84688 132.7939Q122.78438 132.7939 123.26875 133.30952Q123.76875 133.80952 123.76875 134.88765L123.76875 139.15327L122.72188 139.15327L122.72188 135.2314Q122.72188 134.6064 122.6125 134.32515Q122.51875 134.0439 122.25313 133.87202Q121.9875 133.70015 121.6125 133.70015Q120.95625 133.70015 120.51875 134.13765Q120.09688 134.57515 120.09688 135.5439L120.09688 139.15327L119.03438 139.15327L119.03438 135.1064Q119.03438 134.40327 118.76875 134.05952Q118.51875 133.70015 117.94063 133.70015Q117.4875 133.70015 117.1125 133.93452Q116.7375 134.1689 116.56563 134.62202Q116.39375 135.07515 116.39375 135.9189L116.39375 139.15327L115.34688 139.15327Z" fill-rule="nonzero"/><path fill="#000000" d="M109.40938 199.39539L110.44063 199.53601Q110.26875 200.59851 109.56563 201.20789Q108.8625 201.81726 107.84688 201.81726Q106.56563 201.81726 105.78438 200.98914Q105.01875 200.14539 105.01875 198.58289Q105.01875 197.58289 105.34688 196.83289Q105.69063 196.06726 106.3625 195.69226Q107.05 195.31726 107.8625 195.31726Q108.8625 195.31726 109.50313 195.83289Q110.15938 196.33289 110.34688 197.28601L109.31563 197.44226Q109.175 196.81726 108.8 196.50476Q108.425 196.17664 107.89375 196.17664Q107.09688 196.17664 106.59688 196.75476Q106.09688 197.31726 106.09688 198.55164Q106.09688 199.81726 106.58125 200.37976Q107.06563 200.94226 107.83125 200.94226Q108.45625 200.94226 108.8625 200.56726Q109.28438 200.19226 109.40938 199.39539ZM115.37813 201.67664L115.37813 200.89539Q114.78438 201.81726 113.64375 201.81726Q112.89375 201.81726 112.26875 201.41101Q111.64375 200.98914 111.3 200.25476Q110.95625 199.52039 110.95625 198.56726Q110.95625 197.64539 111.26875 196.87976Q111.58125 196.11414 112.20625 195.72351Q112.83125 195.31726 113.59688 195.31726Q114.15938 195.31726 114.59688 195.55164Q115.03438 195.78601 115.31563 196.16101L115.31563 193.08289L116.3625 193.08289L116.3625 201.67664L115.37813 201.67664ZM112.05 198.56726Q112.05 199.77039 112.55 200.36414Q113.05 200.94226 113.7375 200.94226Q114.425 200.94226 114.90938 200.37976Q115.39375 199.81726 115.39375 198.66101Q115.39375 197.37976 114.89375 196.78601Q114.40938 196.19226 113.69063 196.19226Q112.9875 196.19226 112.51875 196.77039Q112.05 197.33289 112.05 198.56726ZM119.31563 201.67664L118.33125 201.67664L118.33125 193.08289L119.39375 193.08289L119.39375 196.14539Q120.06563 195.31726 121.09688 195.31726Q121.675 195.31726 122.175 195.55164Q122.69063 195.77039 123.01875 196.19226Q123.3625 196.61414 123.55 197.20789Q123.7375 197.80164 123.7375 198.47351Q123.7375 200.06726 122.94063 200.94226Q122.14375 201.81726 121.05 201.81726Q119.94063 201.81726 119.31563 200.89539L119.31563 201.67664ZM119.3 198.52039Q119.3 199.62976 119.6125 200.12976Q120.1125 200.94226 120.95625 200.94226Q121.64375 200.94226 122.14375 200.34851Q122.65938 199.75476 122.65938 198.55164Q122.65938 197.33289 122.175 196.75476Q121.69063 196.17664 121.00313 196.17664Q120.31563 196.17664 119.8 196.78601Q119.3 197.37976 119.3 198.52039Z" fill-rule="nonzero"/><path fill="#000000" d="M28.378124 264.2L28.378124 263.41876Q27.784374 264.34064 26.64375 264.34064Q25.89375 264.34064 25.26875 263.9344Q24.64375 263.5125 24.3 262.77814Q23.95625 262.04376 23.95625 261.09064Q23.95625 260.16876 24.26875 259.40314Q24.58125 258.6375 25.20625 258.2469Q25.83125 257.84064 26.596874 257.84064Q27.159374 257.84064 27.596874 258.075Q28.034374 258.3094 28.315624 258.6844L28.315624 255.60626L29.3625 255.60626L29.3625 264.2L28.378124 264.2ZM25.05 261.09064Q25.05 262.29376 25.55 262.8875Q26.05 263.46564 26.7375 263.46564Q27.425 263.46564 27.909374 262.90314Q28.39375 262.34064 28.39375 261.1844Q28.39375 259.90314 27.89375 259.3094Q27.409374 258.71564 26.690624 258.71564Q25.9875 258.71564 25.51875 259.29376Q25.05 259.85626 25.05 261.09064ZM32.315624 264.2L31.33125 264.2L31.33125 255.60626L32.39375 255.60626L32.39375 258.66876Q33.065624 257.84064 34.096874 257.84064Q34.675 257.84064 35.175 258.075Q35.690624 258.29376 36.01875 258.71564Q36.3625 259.1375 36.55 259.73126Q36.7375 260.325 36.7375 260.9969Q36.7375 262.59064 35.940624 263.46564Q35.14375 264.34064 34.05 264.34064Q32.940624 264.34064 32.315624 263.41876L32.315624 264.2ZM32.3 261.04376Q32.3 262.15314 32.6125 262.65314Q33.1125 263.46564 33.95625 263.46564Q34.64375 263.46564 35.14375 262.8719Q35.659374 262.27814 35.659374 261.075Q35.659374 259.85626 35.175 259.27814Q34.690624 258.7 34.003124 258.7Q33.315624 258.7 32.8 259.3094Q32.3 259.90314 32.3 261.04376ZM41.425 264.2L41.425 262.1375L37.70625 262.1375L37.70625 261.16876L41.628124 255.60626L42.4875 255.60626L42.4875 261.16876L43.64375 261.16876L43.64375 262.1375L42.4875 262.1375L42.4875 264.2L41.425 264.2ZM41.425 261.16876L41.425 257.3094L38.7375 261.16876L41.425 261.16876ZM47.3625 266.73126Q46.4875 265.6219 45.878124 264.15314Q45.284374 262.66876 45.284374 261.09064Q45.284374 259.7 45.721874 258.41876Q46.253124 256.9344 47.3625 255.46564L48.1125 255.46564Q47.409374 256.6844 47.175 257.2Q46.815624 258.0125 46.6125 258.8875Q46.3625 259.98126 46.3625 261.09064Q46.3625 263.91876 48.1125 266.73126L47.3625 266.73126ZM49.425 264.2L49.425 255.60626L52.659374 255.60626Q53.64375 255.60626 54.2375 255.87189Q54.83125 256.1375 55.159374 256.6844Q55.503124 257.21564 55.503124 257.8094Q55.503124 258.35626 55.20625 258.84064Q54.909374 259.325 54.3 259.6219Q55.08125 259.85626 55.4875 260.41876Q55.909374 260.96564 55.909374 261.71564Q55.909374 262.3094 55.659374 262.84064Q55.409374 263.35626 55.034374 263.6375Q54.659374 263.91876 54.08125 264.0594Q53.51875 264.2 52.70625 264.2L49.425 264.2ZM50.565624 259.21564L52.425 259.21564Q53.175 259.21564 53.503124 259.1219Q53.940624 258.9969 54.159374 258.7Q54.378124 258.3875 54.378124 257.9344Q54.378124 257.5125 54.175 257.1844Q53.971874 256.85626 53.58125 256.7469Q53.20625 256.6219 52.284374 256.6219L50.565624 256.6219L50.565624 259.21564ZM50.565624 263.1844L52.70625 263.1844Q53.253124 263.1844 53.471874 263.1375Q53.878124 263.075 54.128124 262.91876Q54.39375 262.7469 54.565624 262.4344Q54.7375 262.1219 54.7375 261.71564Q54.7375 261.23126 54.4875 260.8719Q54.253124 260.5125 53.815624 260.3719Q53.378124 260.23126 52.55 260.23126L50.565624 260.23126L50.565624 263.1844ZM61.596874 262.2L62.690624 262.325Q62.440624 263.27814 61.7375 263.8094Q61.034374 264.34064 59.95625 264.34064Q58.596874 264.34064 57.784374 263.4969Q56.9875 262.65314 56.9875 261.1375Q56.9875 259.575 57.8 258.71564Q58.6125 257.84064 59.89375 257.84064Q61.14375 257.84064 61.925 258.6844Q62.721874 259.52814 62.721874 261.075Q62.721874 261.16876 62.721874 261.35626L58.08125 261.35626Q58.14375 262.3875 58.659374 262.9344Q59.175 263.46564 59.95625 263.46564Q60.534374 263.46564 60.940624 263.16876Q61.3625 262.85626 61.596874 262.2ZM58.14375 260.4969L61.6125 260.4969Q61.55 259.7 61.221874 259.3094Q60.70625 258.7 59.909374 258.7Q59.175 258.7 58.675 259.1844Q58.190624 259.66876 58.14375 260.4969ZM64.33125 264.2L64.33125 257.98126L65.28438 257.98126L65.28438 258.91876Q65.64375 258.2625 65.94063 258.0594Q66.25313 257.84064 66.62813 257.84064Q67.15938 257.84064 67.70625 258.16876L67.34688 259.15314Q66.95625 258.91876 66.58125 258.91876Q66.22188 258.91876 65.94063 259.1375Q65.675 259.34064 65.56563 259.71564Q65.37813 260.27814 65.37813 260.9344L65.37813 264.2L64.33125 264.2ZM68.34688 264.2L68.34688 255.60626L69.40938 255.60626L69.40938 260.5125L71.89375 257.98126L73.26875 257.98126L70.87813 260.27814L73.50313 264.2L72.20625 264.2L70.14375 261.0125L69.40938 261.73126L69.40938 264.2L68.34688 264.2ZM78.59688 262.2L79.69063 262.325Q79.44063 263.27814 78.7375 263.8094Q78.03438 264.34064 76.95625 264.34064Q75.59688 264.34064 74.78438 263.4969Q73.9875 262.65314 73.9875 261.1375Q73.9875 259.575 74.8 258.71564Q75.6125 257.84064 76.89375 257.84064Q78.14375 257.84064 78.925 258.6844Q79.72188 259.52814 79.72188 261.075Q79.72188 261.16876 79.72188 261.35626L75.08125 261.35626Q75.14375 262.3875 75.65938 262.9344Q76.175 263.46564 76.95625 263.46564Q77.53438 263.46564 77.94063 263.16876Q78.3625 262.85626 78.59688 262.2ZM75.14375 260.4969L78.6125 260.4969Q78.55 259.7 78.22188 259.3094Q77.70625 258.7 76.90938 258.7Q76.175 258.7 75.675 259.1844Q75.19063 259.66876 75.14375 260.4969ZM81.31563 264.2L81.31563 255.60626L82.37813 255.60626L82.37813 264.2L81.31563 264.2ZM88.59688 262.2L89.69063 262.325Q89.44063 263.27814 88.7375 263.8094Q88.03438 264.34064 86.95625 264.34064Q85.59688 264.34064 84.78438 263.4969Q83.9875 262.65314 83.9875 261.1375Q83.9875 259.575 84.8 258.71564Q85.6125 257.84064 86.89375 257.84064Q88.14375 257.84064 88.925 258.6844Q89.72188 259.52814 89.72188 261.075Q89.72188 261.16876 89.72188 261.35626L85.08125 261.35626Q85.14375 262.3875 85.65938 262.9344Q86.175 263.46564 86.95625 263.46564Q87.53438 263.46564 87.94063 263.16876Q88.3625 262.85626 88.59688 262.2ZM85.14375 260.4969L88.6125 260.4969Q88.55 259.7 88.22188 259.3094Q87.70625 258.7 86.90938 258.7Q86.175 258.7 85.675 259.1844Q85.19063 259.66876 85.14375 260.4969ZM91.3 266.59064L91.175 265.60626Q91.51875 265.7 91.78438 265.7Q92.12813 265.7 92.33125 265.575Q92.55 265.46564 92.69063 265.2625Q92.78438 265.09064 93.01875 264.46564Q93.03438 264.3875 93.1125 264.21564L90.7375 257.98126L91.87813 257.98126L93.175 261.575Q93.425 262.2625 93.62813 263.02814Q93.81563 262.29376 94.06563 261.60626L95.39375 257.98126L96.44063 257.98126L94.08125 264.3094Q93.69063 265.325 93.4875 265.71564Q93.20625 266.2469 92.83125 266.48126Q92.47188 266.73126 91.97188 266.73126Q91.675 266.73126 91.3 266.59064ZM97.47188 264.2L97.47188 255.60626L100.44063 255.60626Q101.44063 255.60626 101.97188 255.73126Q102.70625 255.90314 103.22188 256.34064Q103.90938 256.91876 104.2375 257.825Q104.58125 258.71564 104.58125 259.85626Q104.58125 260.84064 104.34688 261.59064Q104.12813 262.34064 103.76875 262.84064Q103.40938 263.34064 102.97188 263.6219Q102.55 263.90314 101.95625 264.0594Q101.3625 264.2 100.58125 264.2L97.47188 264.2ZM98.6125 263.1844L100.44063 263.1844Q101.3 263.1844 101.78438 263.02814Q102.26875 262.8719 102.55 262.575Q102.95625 262.1844 103.175 261.4969Q103.40938 260.8094 103.40938 259.84064Q103.40938 258.4969 102.95625 257.77814Q102.51875 257.04376 101.89375 256.79376Q101.425 256.6219 100.425 256.6219L98.6125 256.6219L98.6125 263.1844ZM106.425 264.2L106.425 255.60626L109.65938 255.60626Q110.64375 255.60626 111.2375 255.87189Q111.83125 256.1375 112.15938 256.6844Q112.50313 257.21564 112.50313 257.8094Q112.50313 258.35626 112.20625 258.84064Q111.90938 259.325 111.3 259.6219Q112.08125 259.85626 112.4875 260.41876Q112.90938 260.96564 112.90938 261.71564Q112.90938 262.3094 112.65938 262.84064Q112.40938 263.35626 112.03438 263.6375Q111.65938 263.91876 111.08125 264.0594Q110.51875 264.2 109.70625 264.2L106.425 264.2ZM107.56563 259.21564L109.425 259.21564Q110.175 259.21564 110.50313 259.1219Q110.94063 258.9969 111.15938 258.7Q111.37813 258.3875 111.37813 257.9344Q111.37813 257.5125 111.175 257.1844Q110.97188 256.85626 110.58125 256.7469Q110.20625 256.6219 109.28438 256.6219L107.56563 256.6219L107.56563 259.21564ZM107.56563 263.1844L109.70625 263.1844Q110.25313 263.1844 110.47188 263.1375Q110.87813 263.075 111.12813 262.91876Q111.39375 262.7469 111.56563 262.4344Q111.7375 262.1219 111.7375 261.71564Q111.7375 261.23126 111.4875 260.8719Q111.25313 260.5125 110.81563 260.3719Q110.37813 260.23126 109.55 260.23126L107.56563 260.23126L107.56563 263.1844ZM114.05 261.95L115.15938 261.85626Q115.28438 262.66876 115.72188 263.075Q116.175 263.48126 116.81563 263.48126Q117.56563 263.48126 118.09688 262.90314Q118.62813 262.325 118.62813 261.3875Q118.62813 260.48126 118.1125 259.96564Q117.6125 259.4344 116.78438 259.4344Q116.28438 259.4344 115.8625 259.66876Q115.45625 259.90314 115.22188 260.2625L114.2375 260.1375L115.06563 255.73126L119.34688 255.73126L119.34688 256.73126L115.90938 256.73126L115.45625 259.04376Q116.22188 258.4969 117.06563 258.4969Q118.19063 258.4969 118.95625 259.27814Q119.7375 260.0594 119.7375 261.29376Q119.7375 262.45 119.06563 263.3094Q118.2375 264.34064 116.81563 264.34064Q115.64375 264.34064 114.89375 263.6844Q114.15938 263.02814 114.05 261.95ZM122.03438 266.73126L121.28438 266.73126Q123.03438 263.91876 123.03438 261.09064Q123.03438 259.9969 122.78438 258.90314Q122.58125 258.02814 122.22188 257.21564Q121.9875 256.7 121.28438 255.46564L122.03438 255.46564Q123.12813 256.9344 123.65938 258.41876Q124.1125 259.7 124.1125 261.09064Q124.1125 262.66876 123.50313 264.15314Q122.89375 265.6219 122.03438 266.73126Z" fill-rule="nonzero"/><path fill="#000000" d="M81.09688 323.95773L82.15938 323.86398Q82.2375 324.52023 82.51875 324.92648Q82.8 325.33273 83.37813 325.59836Q83.97188 325.84836 84.70625 325.84836Q85.34688 325.84836 85.84688 325.66086Q86.34688 325.45773 86.58125 325.1296Q86.83125 324.78586 86.83125 324.39523Q86.83125 323.98898 86.59688 323.6921Q86.3625 323.3796 85.83125 323.17648Q85.47188 323.03586 84.28438 322.7546Q83.1125 322.47336 82.64375 322.22336Q82.01875 321.89523 81.72188 321.42648Q81.425 320.9421 81.425 320.34836Q81.425 319.70773 81.78438 319.14523Q82.15938 318.5671 82.8625 318.28586Q83.58125 317.98898 84.44063 317.98898Q85.39375 317.98898 86.12813 318.30148Q86.8625 318.59836 87.25313 319.20773Q87.64375 319.80148 87.675 320.55148L86.58125 320.6296Q86.4875 319.8171 85.97188 319.41086Q85.47188 318.98898 84.4875 318.98898Q83.45625 318.98898 82.9875 319.36398Q82.51875 319.73898 82.51875 320.27023Q82.51875 320.73898 82.84688 321.03586Q83.175 321.33273 84.55 321.64523Q85.94063 321.95773 86.45625 322.1921Q87.20625 322.55148 87.56563 323.08273Q87.925 323.59836 87.925 324.30148Q87.925 324.98898 87.53438 325.59836Q87.14375 326.1921 86.40938 326.53586Q85.675 326.86398 84.75313 326.86398Q83.58125 326.86398 82.78438 326.53586Q82.00313 326.1921 81.55 325.5046Q81.1125 324.8171 81.09688 323.95773ZM95.9875 325.80148Q96.78438 326.34836 97.44063 326.59836L97.1125 327.39523Q96.19063 327.05148 95.26875 326.33273Q94.31563 326.86398 93.15938 326.86398Q91.9875 326.86398 91.03438 326.30148Q90.09688 325.73898 89.58125 324.72336Q89.06563 323.70773 89.06563 322.42648Q89.06563 321.16086 89.58125 320.11398Q90.09688 319.0671 91.05 318.52023Q92.00313 317.97336 93.175 317.97336Q94.3625 317.97336 95.31563 318.55148Q96.28438 319.11398 96.78438 320.1296Q97.28438 321.14523 97.28438 322.42648Q97.28438 323.48898 96.95625 324.33273Q96.64375 325.17648 95.9875 325.80148ZM93.4875 324.34836Q94.47188 324.6296 95.1125 325.17648Q96.1125 324.2546 96.1125 322.42648Q96.1125 321.3796 95.75313 320.59836Q95.39375 319.8171 94.70625 319.39523Q94.03438 318.95773 93.19063 318.95773Q91.90938 318.95773 91.06563 319.83273Q90.2375 320.6921 90.2375 322.42648Q90.2375 324.09836 91.06563 325.0046Q91.89375 325.89523 93.19063 325.89523Q93.8 325.89523 94.33125 325.66086Q93.8 325.3171 93.20625 325.17648L93.4875 324.34836ZM98.425 326.72336L98.425 318.1296L99.56563 318.1296L99.56563 325.70773L103.8 325.70773L103.8 326.72336L98.425 326.72336ZM105.34688 319.34836L105.34688 318.1296L106.40938 318.1296L106.40938 319.34836L105.34688 319.34836ZM105.34688 326.72336L105.34688 320.5046L106.40938 320.5046L106.40938 326.72336L105.34688 326.72336ZM110.64375 325.78586L110.8 326.70773Q110.34688 326.80148 110.00313 326.80148Q109.425 326.80148 109.1125 326.6296Q108.8 326.4421 108.65938 326.14523Q108.53438 325.84836 108.53438 324.89523L108.53438 321.3171L107.76875 321.3171L107.76875 320.5046L108.53438 320.5046L108.53438 318.95773L109.58125 318.33273L109.58125 320.5046L110.64375 320.5046L110.64375 321.3171L109.58125 321.3171L109.58125 324.95773Q109.58125 325.41086 109.62813 325.53586Q109.69063 325.66086 109.81563 325.73898Q109.94063 325.8171 110.175 325.8171Q110.3625 325.8171 110.64375 325.78586ZM115.59688 324.72336L116.69063 324.84836Q116.44063 325.80148 115.7375 326.33273Q115.03438 326.86398 113.95625 326.86398Q112.59688 326.86398 111.78438 326.02023Q110.9875 325.17648 110.9875 323.66086Q110.9875 322.09836 111.8 321.23898Q112.6125 320.36398 113.89375 320.36398Q115.14375 320.36398 115.925 321.20773Q116.72188 322.05148 116.72188 323.59836Q116.72188 323.6921 116.72188 323.8796L112.08125 323.8796Q112.14375 324.91086 112.65938 325.45773Q113.175 325.98898 113.95625 325.98898Q114.53438 325.98898 114.94063 325.6921Q115.3625 325.3796 115.59688 324.72336ZM112.14375 323.02023L115.6125 323.02023Q115.55 322.22336 115.22188 321.83273Q114.70625 321.22336 113.90938 321.22336Q113.175 321.22336 112.675 321.70773Q112.19063 322.1921 112.14375 323.02023ZM118.05 324.45773L119.1125 324.3171Q119.28438 325.20773 119.72188 325.61398Q120.15938 326.0046 120.78438 326.0046Q121.53438 326.0046 122.05 325.48898Q122.56563 324.97336 122.56563 324.20773Q122.56563 323.48898 122.08125 323.02023Q121.6125 322.53586 120.87813 322.53586Q120.58125 322.53586 120.12813 322.66086L120.25313 321.72336Q120.3625 321.73898 120.425 321.73898Q121.09688 321.73898 121.62813 321.39523Q122.175 321.03586 122.175 320.30148Q122.175 319.72336 121.78438 319.34836Q121.39375 318.95773 120.76875 318.95773Q120.15938 318.95773 119.7375 319.34836Q119.33125 319.73898 119.22188 320.5046L118.15938 320.3171Q118.34688 319.27023 119.03438 318.6921Q119.72188 318.09836 120.7375 318.09836Q121.44063 318.09836 122.03438 318.41086Q122.62813 318.70773 122.94063 319.22336Q123.25313 319.73898 123.25313 320.33273Q123.25313 320.8796 122.95625 321.34836Q122.65938 321.80148 122.08125 322.0671Q122.83125 322.23898 123.25313 322.80148Q123.675 323.34836 123.675 324.1921Q123.675 325.3171 122.84688 326.09836Q122.03438 326.8796 120.78438 326.8796Q119.65938 326.8796 118.90938 326.20773Q118.15938 325.52023 118.05 324.45773Z" fill-rule="nonzero"/><path fill="#000000" d="M78.425 389.24673L78.425 380.65298L79.56563 380.65298L79.56563 388.2311L83.8 388.2311L83.8 389.24673L78.425 389.24673ZM89.59688 387.24673L90.69063 387.37173Q90.44063 388.32486 89.7375 388.8561Q89.03438 389.38736 87.95625 389.38736Q86.59688 389.38736 85.78438 388.5436Q84.9875 387.69986 84.9875 386.18423Q84.9875 384.62173 85.8 383.76236Q86.6125 382.88736 87.89375 382.88736Q89.14375 382.88736 89.925 383.7311Q90.72188 384.57486 90.72188 386.12173Q90.72188 386.21548 90.72188 386.40298L86.08125 386.40298Q86.14375 387.43423 86.65938 387.9811Q87.175 388.51236 87.95625 388.51236Q88.53438 388.51236 88.94063 388.21548Q89.3625 387.90298 89.59688 387.24673ZM86.14375 385.5436L89.6125 385.5436Q89.55 384.74673 89.22188 384.3561Q88.70625 383.74673 87.90938 383.74673Q87.175 383.74673 86.675 384.2311Q86.19063 384.71548 86.14375 385.5436ZM94.06563 389.24673L91.70625 383.02798L92.81563 383.02798L94.15938 386.74673Q94.3625 387.3561 94.55 387.99673Q94.69063 387.51236 94.94063 386.82486L96.33125 383.02798L97.40938 383.02798L95.05 389.24673L94.06563 389.24673ZM102.59688 387.24673L103.69063 387.37173Q103.44063 388.32486 102.7375 388.8561Q102.03438 389.38736 100.95625 389.38736Q99.59688 389.38736 98.78438 388.5436Q97.9875 387.69986 97.9875 386.18423Q97.9875 384.62173 98.8 383.76236Q99.6125 382.88736 100.89375 382.88736Q102.14375 382.88736 102.925 383.7311Q103.72188 384.57486 103.72188 386.12173Q103.72188 386.21548 103.72188 386.40298L99.08125 386.40298Q99.14375 387.43423 99.65938 387.9811Q100.175 388.51236 100.95625 388.51236Q101.53438 388.51236 101.94063 388.21548Q102.3625 387.90298 102.59688 387.24673ZM99.14375 385.5436L102.6125 385.5436Q102.55 384.74673 102.22188 384.3561Q101.70625 383.74673 100.90938 383.74673Q100.175 383.74673 99.675 384.2311Q99.19063 384.71548 99.14375 385.5436ZM105.31563 389.24673L105.31563 380.65298L106.37813 380.65298L106.37813 389.24673L105.31563 389.24673ZM108.47188 389.24673L108.47188 380.65298L111.44063 380.65298Q112.44063 380.65298 112.97188 380.77798Q113.70625 380.94986 114.22188 381.38736Q114.90938 381.96548 115.2375 382.87173Q115.58125 383.76236 115.58125 384.90298Q115.58125 385.88736 115.34688 386.63736Q115.12813 387.38736 114.76875 387.88736Q114.40938 388.38736 113.97188 388.6686Q113.55 388.94986 112.95625 389.1061Q112.3625 389.24673 111.58125 389.24673L108.47188 389.24673ZM109.6125 388.2311L111.44063 388.2311Q112.3 388.2311 112.78438 388.07486Q113.26875 387.9186 113.55 387.62173Q113.95625 387.2311 114.175 386.5436Q114.40938 385.8561 114.40938 384.88736Q114.40938 383.5436 113.95625 382.82486Q113.51875 382.09048 112.89375 381.84048Q112.425 381.6686 111.425 381.6686L109.6125 381.6686L109.6125 388.2311ZM117.425 389.24673L117.425 380.65298L120.65938 380.65298Q121.64375 380.65298 122.2375 380.9186Q122.83125 381.18423 123.15938 381.7311Q123.50313 382.26236 123.50313 382.8561Q123.50313 383.40298 123.20625 383.88736Q122.90938 384.37173 122.3 384.6686Q123.08125 384.90298 123.4875 385.46548Q123.90938 386.01236 123.90938 386.76236Q123.90938 387.3561 123.65938 387.88736Q123.40938 388.40298 123.03438 388.68423Q122.65938 388.96548 122.08125 389.1061Q121.51875 389.24673 120.70625 389.24673L117.425 389.24673ZM118.56563 384.26236L120.425 384.26236Q121.175 384.26236 121.50313 384.1686Q121.94063 384.0436 122.15938 383.74673Q122.37813 383.43423 122.37813 382.9811Q122.37813 382.55923 122.175 382.2311Q121.97188 381.90298 121.58125 381.7936Q121.20625 381.6686 120.28438 381.6686L118.56563 381.6686L118.56563 384.26236ZM118.56563 388.2311L120.70625 388.2311Q121.25313 388.2311 121.47188 388.18423Q121.87813 388.12173 122.12813 387.96548Q122.39375 387.7936 122.56563 387.4811Q122.7375 387.1686 122.7375 386.76236Q122.7375 386.27798 122.4875 385.9186Q122.25313 385.55923 121.81563 385.4186Q121.37813 385.27798 120.55 385.27798L118.56563 385.27798L118.56563 388.2311Z" fill-rule="nonzero"/><path fill="#000000" d="M105.05 440.21564Q105.05 438.6844 105.3625 437.7625Q105.675 436.825 106.28438 436.325Q106.90938 435.825 107.84688 435.825Q108.53438 435.825 109.05 436.10626Q109.58125 436.3875 109.925 436.91876Q110.26875 437.4344 110.45625 438.1844Q110.64375 438.9344 110.64375 440.21564Q110.64375 441.73126 110.33125 442.65314Q110.03438 443.575 109.40938 444.09064Q108.8 444.59064 107.84688 444.59064Q106.6125 444.59064 105.89375 443.7Q105.05 442.6375 105.05 440.21564ZM106.12813 440.21564Q106.12813 442.325 106.62813 443.02814Q107.12813 443.73126 107.84688 443.73126Q108.58125 443.73126 109.06563 443.02814Q109.56563 442.325 109.56563 440.21564Q109.56563 438.09064 109.06563 437.40314Q108.58125 436.7 107.83125 436.7Q107.1125 436.7 106.675 437.3094Q106.12813 438.09064 106.12813 440.21564ZM112.64375 444.45L112.64375 443.2469L113.84688 443.2469L113.84688 444.45L112.64375 444.45ZM115.05 440.21564Q115.05 438.6844 115.3625 437.7625Q115.675 436.825 116.28438 436.325Q116.90938 435.825 117.84688 435.825Q118.53438 435.825 119.05 436.10626Q119.58125 436.3875 119.925 436.91876Q120.26875 437.4344 120.45625 438.1844Q120.64375 438.9344 120.64375 440.21564Q120.64375 441.73126 120.33125 442.65314Q120.03438 443.575 119.40938 444.09064Q118.8 444.59064 117.84688 444.59064Q116.6125 444.59064 115.89375 443.7Q115.05 442.6375 115.05 440.21564ZM116.12813 440.21564Q116.12813 442.325 116.62813 443.02814Q117.12813 443.73126 117.84688 443.73126Q118.58125 443.73126 119.06563 443.02814Q119.56563 442.325 119.56563 440.21564Q119.56563 438.09064 119.06563 437.40314Q118.58125 436.7 117.83125 436.7Q117.1125 436.7 116.675 437.3094Q116.12813 438.09064 116.12813 440.21564ZM122.05 440.21564Q122.05 438.6844 122.3625 437.7625Q122.675 436.825 123.28438 436.325Q123.90938 435.825 124.84688 435.825Q125.53438 435.825 126.05 436.10626Q126.58125 436.3875 126.925 436.91876Q127.26875 437.4344 127.45625 438.1844Q127.64375 438.9344 127.64375 440.21564Q127.64375 441.73126 127.33125 442.65314Q127.03438 443.575 126.40938 444.09064Q125.8 444.59064 124.84688 444.59064Q123.6125 444.59064 122.89375 443.7Q122.05 442.6375 122.05 440.21564ZM123.12813 440.21564Q123.12813 442.325 123.62813 443.02814Q124.12813 443.73126 124.84688 443.73126Q125.58125 443.73126 126.06563 443.02814Q126.56563 442.325 126.56563 440.21564Q126.56563 438.09064 126.06563 437.40314Q125.58125 436.7 124.83125 436.7Q124.1125 436.7 123.675 437.3094Q123.12813 438.09064 123.12813 440.21564ZM129.05 440.21564Q129.05 438.6844 129.3625 437.7625Q129.675 436.825 130.28438 436.325Q130.90938 435.825 131.84688 435.825Q132.53438 435.825 133.05 436.10626Q133.58125 436.3875 133.925 436.91876Q134.26875 437.4344 134.45625 438.1844Q134.64375 438.9344 134.64375 440.21564Q134.64375 441.73126 134.33125 442.65314Q134.03438 443.575 133.40938 444.09064Q132.8 444.59064 131.84688 444.59064Q130.6125 444.59064 129.89375 443.7Q129.05 442.6375 129.05 440.21564ZM130.12813 440.21564Q130.12813 442.325 130.62813 443.02814Q131.12813 443.73126 131.84688 443.73126Q132.58125 443.73126 133.06563 443.02814Q133.56563 442.325 133.56563 440.21564Q133.56563 438.09064 133.06563 437.40314Q132.58125 436.7 131.83125 436.7Q131.1125 436.7 130.675 437.3094Q130.12813 438.09064 130.12813 440.21564ZM136.05 440.21564Q136.05 438.6844 136.3625 437.7625Q136.675 436.825 137.28438 436.325Q137.90938 435.825 138.84688 435.825Q139.53438 435.825 140.05 436.10626Q140.58125 436.3875 140.925 436.91876Q141.26875 437.4344 141.45625 438.1844Q141.64375 438.9344 141.64375 440.21564Q141.64375 441.73126 141.33125 442.65314Q141.03438 443.575 140.40938 444.09064Q139.8 444.59064 138.84688 444.59064Q137.6125 444.59064 136.89375 443.7Q136.05 442.6375 136.05 440.21564ZM137.12813 440.21564Q137.12813 442.325 137.62813 443.02814Q138.12813 443.73126 138.84688 443.73126Q139.58125 443.73126 140.06563 443.02814Q140.56563 442.325 140.56563 440.21564Q140.56563 438.09064 140.06563 437.40314Q139.58125 436.7 138.83125 436.7Q138.1125 436.7 137.675 437.3094Q137.12813 438.09064 137.12813 440.21564ZM143.05 440.21564Q143.05 438.6844 143.3625 437.7625Q143.675 436.825 144.28438 436.325Q144.90938 435.825 145.84688 435.825Q146.53438 435.825 147.05 436.10626Q147.58125 436.3875 147.925 436.91876Q148.26875 437.4344 148.45625 438.1844Q148.64375 438.9344 148.64375 440.21564Q148.64375 441.73126 148.33125 442.65314Q148.03438 443.575 147.40938 444.09064Q146.8 444.59064 145.84688 444.59064Q144.6125 444.59064 143.89375 443.7Q143.05 442.6375 143.05 440.21564ZM144.12813 440.21564Q144.12813 442.325 144.62813 443.02814Q145.12813 443.73126 145.84688 443.73126Q146.58125 443.73126 147.06563 443.02814Q147.56563 442.325 147.56563 440.21564Q147.56563 438.09064 147.06563 437.40314Q146.58125 436.7 145.83125 436.7Q145.1125 436.7 144.675 437.3094Q144.12813 438.09064 144.12813 440.21564ZM150.05 440.21564Q150.05 438.6844 150.3625 437.7625Q150.675 436.825 151.28438 436.325Q151.90938 435.825 152.84688 435.825Q153.53438 435.825 154.05 436.10626Q154.58125 436.3875 154.925 436.91876Q155.26875 437.4344 155.45625 438.1844Q155.64375 438.9344 155.64375 440.21564Q155.64375 441.73126 155.33125 442.65314Q155.03438 443.575 154.40938 444.09064Q153.8 444.59064 152.84688 444.59064Q151.6125 444.59064 150.89375 443.7Q150.05 442.6375 150.05 440.21564ZM151.12813 440.21564Q151.12813 442.325 151.62813 443.02814Q152.12813 443.73126 152.84688 443.73126Q153.58125 443.73126 154.06563 443.02814Q154.56563 442.325 154.56563 440.21564Q154.56563 438.09064 154.06563 437.40314Q153.58125 436.7 152.83125 436.7Q152.1125 436.7 151.675 437.3094Q151.12813 438.09064 151.12813 440.21564Z" fill-rule="nonzero"/><path fill="#000000" d="M340.49374 444.45L339.44687 444.45L339.44687 437.73126Q339.05624 438.09064 338.43124 438.46564Q337.82187 438.825 337.3375 438.9969L337.3375 437.98126Q338.2125 437.5594 338.86874 436.98126Q339.54062 436.3875 339.82187 435.825L340.49374 435.825L340.49374 444.45ZM343.525 440.21564Q343.525 438.6844 343.8375 437.7625Q344.15 436.825 344.75937 436.325Q345.38437 435.825 346.32187 435.825Q347.00937 435.825 347.525 436.10626Q348.05624 436.3875 348.4 436.91876Q348.74374 437.4344 348.93124 438.1844Q349.11874 438.9344 349.11874 440.21564Q349.11874 441.73126 348.80624 442.65314Q348.50937 443.575 347.88437 444.09064Q347.275 444.59064 346.32187 444.59064Q345.0875 444.59064 344.36874 443.7Q343.525 442.6375 343.525 440.21564ZM344.60312 440.21564Q344.60312 442.325 345.10312 443.02814Q345.60312 443.73126 346.32187 443.73126Q347.05624 443.73126 347.54062 443.02814Q348.04062 442.325 348.04062 440.21564Q348.04062 438.09064 347.54062 437.40314Q347.05624 436.7 346.30624 436.7Q345.5875 436.7 345.15 437.3094Q344.60312 438.09064 344.60312 440.21564ZM350.525 440.21564Q350.525 438.6844 350.8375 437.7625Q351.15 436.825 351.75937 436.325Q352.38437 435.825 353.32187 435.825Q354.00937 435.825 354.525 436.10626Q355.05624 436.3875 355.4 436.91876Q355.74374 437.4344 355.93124 438.1844Q356.11874 438.9344 356.11874 440.21564Q356.11874 441.73126 355.80624 442.65314Q355.50937 443.575 354.88437 444.09064Q354.275 444.59064 353.32187 444.59064Q352.0875 444.59064 351.36874 443.7Q350.525 442.6375 350.525 440.21564ZM351.60312 440.21564Q351.60312 442.325 352.10312 443.02814Q352.60312 443.73126 353.32187 443.73126Q354.05624 443.73126 354.54062 443.02814Q355.04062 442.325 355.04062 440.21564Q355.04062 438.09064 354.54062 437.40314Q354.05624 436.7 353.30624 436.7Q352.5875 436.7 352.15 437.3094Q351.60312 438.09064 351.60312 440.21564ZM358.11874 444.45L358.11874 443.2469L359.32187 443.2469L359.32187 444.45L358.11874 444.45ZM360.525 440.21564Q360.525 438.6844 360.8375 437.7625Q361.15 436.825 361.75937 436.325Q362.38437 435.825 363.32187 435.825Q364.00937 435.825 364.525 436.10626Q365.05624 436.3875 365.4 436.91876Q365.74374 437.4344 365.93124 438.1844Q366.11874 438.9344 366.11874 440.21564Q366.11874 441.73126 365.80624 442.65314Q365.50937 443.575 364.88437 444.09064Q364.275 444.59064 363.32187 444.59064Q362.0875 444.59064 361.36874 443.7Q360.525 442.6375 360.525 440.21564ZM361.60312 440.21564Q361.60312 442.325 362.10312 443.02814Q362.60312 443.73126 363.32187 443.73126Q364.05624 443.73126 364.54062 443.02814Q365.04062 442.325 365.04062 440.21564Q365.04062 438.09064 364.54062 437.40314Q364.05624 436.7 363.30624 436.7Q362.5875 436.7 362.15 437.3094Q361.60312 438.09064 361.60312 440.21564ZM367.525 440.21564Q367.525 438.6844 367.8375 437.7625Q368.15 436.825 368.75937 436.325Q369.38437 435.825 370.32187 435.825Q371.00937 435.825 371.525 436.10626Q372.05624 436.3875 372.4 436.91876Q372.74374 437.4344 372.93124 438.1844Q373.11874 438.9344 373.11874 440.21564Q373.11874 441.73126 372.80624 442.65314Q372.50937 443.575 371.88437 444.09064Q371.275 444.59064 370.32187 444.59064Q369.0875 444.59064 368.36874 443.7Q367.525 442.6375 367.525 440.21564ZM368.60312 440.21564Q368.60312 442.325 369.10312 443.02814Q369.60312 443.73126 370.32187 443.73126Q371.05624 443.73126 371.54062 443.02814Q372.04062 442.325 372.04062 440.21564Q372.04062 438.09064 371.54062 437.40314Q371.05624 436.7 370.30624 436.7Q369.5875 436.7 369.15 437.3094Q368.60312 438.09064 368.60312 440.21564ZM374.525 440.21564Q374.525 438.6844 374.8375 437.7625Q375.15 436.825 375.75937 436.325Q376.38437 435.825 377.32187 435.825Q378.00937 435.825 378.525 436.10626Q379.05624 436.3875 379.4 436.91876Q379.74374 437.4344 379.93124 438.1844Q380.11874 438.9344 380.11874 440.21564Q380.11874 441.73126 379.80624 442.65314Q379.50937 443.575 378.88437 444.09064Q378.275 444.59064 377.32187 444.59064Q376.0875 444.59064 375.36874 443.7Q374.525 442.6375 374.525 440.21564ZM375.60312 440.21564Q375.60312 442.325 376.10312 443.02814Q376.60312 443.73126 377.32187 443.73126Q378.05624 443.73126 378.54062 443.02814Q379.04062 442.325 379.04062 440.21564Q379.04062 438.09064 378.54062 437.40314Q378.05624 436.7 377.30624 436.7Q376.5875 436.7 376.15 437.3094Q375.60312 438.09064 375.60312 440.21564ZM381.525 440.21564Q381.525 438.6844 381.8375 437.7625Q382.15 436.825 382.75937 436.325Q383.38437 435.825 384.32187 435.825Q385.00937 435.825 385.525 436.10626Q386.05624 436.3875 386.4 436.91876Q386.74374 437.4344 386.93124 438.1844Q387.11874 438.9344 387.11874 440.21564Q387.11874 441.73126 386.80624 442.65314Q386.50937 443.575 385.88437 444.09064Q385.275 444.59064 384.32187 444.59064Q383.0875 444.59064 382.36874 443.7Q381.525 442.6375 381.525 440.21564ZM382.60312 440.21564Q382.60312 442.325 383.10312 443.02814Q383.60312 443.73126 384.32187 443.73126Q385.05624 443.73126 385.54062 443.02814Q386.04062 442.325 386.04062 440.21564Q386.04062 438.09064 385.54062 437.40314Q385.05624 436.7 384.30624 436.7Q383.5875 436.7 383.15 437.3094Q382.60312 438.09064 382.60312 440.21564ZM388.525 440.21564Q388.525 438.6844 388.8375 437.7625Q389.15 436.825 389.75937 436.325Q390.38437 435.825 391.32187 435.825Q392.00937 435.825 392.525 436.10626Q393.05624 436.3875 393.4 436.91876Q393.74374 437.4344 393.93124 438.1844Q394.11874 438.9344 394.11874 440.21564Q394.11874 441.73126 393.80624 442.65314Q393.50937 443.575 392.88437 444.09064Q392.275 444.59064 391.32187 444.59064Q390.0875 444.59064 389.36874 443.7Q388.525 442.6375 388.525 440.21564ZM389.60312 440.21564Q389.60312 442.325 390.10312 443.02814Q390.60312 443.73126 391.32187 443.73126Q392.05624 443.73126 392.54062 443.02814Q393.04062 442.325 393.04062 440.21564Q393.04062 438.09064 392.54062 437.40314Q392.05624 436.7 391.30624 436.7Q390.5875 436.7 390.15 437.3094Q389.60312 438.09064 389.60312 440.21564ZM395.525 440.21564Q395.525 438.6844 395.8375 437.7625Q396.15 436.825 396.75937 436.325Q397.38437 435.825 398.32187 435.825Q399.00937 435.825 399.525 436.10626Q400.05624 436.3875 400.4 436.91876Q400.74374 437.4344 400.93124 438.1844Q401.11874 438.9344 401.11874 440.21564Q401.11874 441.73126 400.80624 442.65314Q400.50937 443.575 399.88437 444.09064Q399.275 444.59064 398.32187 444.59064Q397.0875 444.59064 396.36874 443.7Q395.525 442.6375 395.525 440.21564ZM396.60312 440.21564Q396.60312 442.325 397.10312 443.02814Q397.60312 443.73126 398.32187 443.73126Q399.05624 443.73126 399.54062 443.02814Q400.04062 442.325 400.04062 440.21564Q400.04062 438.09064 399.54062 437.40314Q399.05624 436.7 398.30624 436.7Q397.5875 436.7 397.15 437.3094Q396.60312 438.09064 396.60312 440.21564Z" fill-rule="nonzero"/><path fill="#000000" d="M580.5469 443.4344L580.5469 444.45L574.8594 444.45Q574.8594 444.075 574.9844 443.71564Q575.2031 443.1375 575.6719 442.575Q576.15625 442.0125 577.0625 441.27814Q578.46875 440.1219 578.9531 439.45Q579.4531 438.77814 579.4531 438.1844Q579.4531 437.5594 579.0 437.1375Q578.5469 436.7 577.8281 436.7Q577.0625 436.7 576.6094 437.15314Q576.15625 437.60626 576.1406 438.41876L575.0625 438.3094Q575.1719 437.09064 575.8906 436.46564Q576.625 435.825 577.8594 435.825Q579.09375 435.825 579.8125 436.5125Q580.53125 437.2 580.53125 438.21564Q580.53125 438.73126 580.3125 439.23126Q580.1094 439.71564 579.6094 440.27814Q579.125 440.825 578.0 441.77814Q577.0469 442.575 576.7656 442.8719Q576.5 443.15314 576.3281 443.4344L580.5469 443.4344ZM582.0 440.21564Q582.0 438.6844 582.3125 437.7625Q582.625 436.825 583.2344 436.325Q583.8594 435.825 584.7969 435.825Q585.4844 435.825 586.0 436.10626Q586.53125 436.3875 586.875 436.91876Q587.21875 437.4344 587.40625 438.1844Q587.59375 438.9344 587.59375 440.21564Q587.59375 441.73126 587.28125 442.65314Q586.9844 443.575 586.3594 444.09064Q585.75 444.59064 584.7969 444.59064Q583.5625 444.59064 582.84375 443.7Q582.0 442.6375 582.0 440.21564ZM583.0781 440.21564Q583.0781 442.325 583.5781 443.02814Q584.0781 443.73126 584.7969 443.73126Q585.53125 443.73126 586.0156 443.02814Q586.5156 442.325 586.5156 440.21564Q586.5156 438.09064 586.0156 437.40314Q585.53125 436.7 584.78125 436.7Q584.0625 436.7 583.625 437.3094Q583.0781 438.09064 583.0781 440.21564ZM589.0 440.21564Q589.0 438.6844 589.3125 437.7625Q589.625 436.825 590.2344 436.325Q590.8594 435.825 591.7969 435.825Q592.4844 435.825 593.0 436.10626Q593.53125 436.3875 593.875 436.91876Q594.21875 437.4344 594.40625 438.1844Q594.59375 438.9344 594.59375 440.21564Q594.59375 441.73126 594.28125 442.65314Q593.9844 443.575 593.3594 444.09064Q592.75 444.59064 591.7969 444.59064Q590.5625 444.59064 589.84375 443.7Q589.0 442.6375 589.0 440.21564ZM590.0781 440.21564Q590.0781 442.325 590.5781 443.02814Q591.0781 443.73126 591.7969 443.73126Q592.53125 443.73126 593.0156 443.02814Q593.5156 442.325 593.5156 440.21564Q593.5156 438.09064 593.0156 437.40314Q592.53125 436.7 591.78125 436.7Q591.0625 436.7 590.625 437.3094Q590.0781 438.09064 590.0781 440.21564ZM596.59375 444.45L596.59375 443.2469L597.7969 443.2469L597.7969 444.45L596.59375 444.45ZM599.0 440.21564Q599.0 438.6844 599.3125 437.7625Q599.625 436.825 600.2344 436.325Q600.8594 435.825 601.7969 435.825Q602.4844 435.825 603.0 436.10626Q603.53125 436.3875 603.875 436.91876Q604.21875 437.4344 604.40625 438.1844Q604.59375 438.9344 604.59375 440.21564Q604.59375 441.73126 604.28125 442.65314Q603.9844 443.575 603.3594 444.09064Q602.75 444.59064 601.7969 444.59064Q600.5625 444.59064 599.84375 443.7Q599.0 442.6375 599.0 440.21564ZM600.0781 440.21564Q600.0781 442.325 600.5781 443.02814Q601.0781 443.73126 601.7969 443.73126Q602.53125 443.73126 603.0156 443.02814Q603.5156 442.325 603.5156 440.21564Q603.5156 438.09064 603.0156 437.40314Q602.53125 436.7 601.78125 436.7Q601.0625 436.7 600.625 437.3094Q600.0781 438.09064 600.0781 440.21564ZM606.0 440.21564Q606.0 438.6844 606.3125 437.7625Q606.625 436.825 607.2344 436.325Q607.8594 435.825 608.7969 435.825Q609.4844 435.825 610.0 436.10626Q610.53125 436.3875 610.875 436.91876Q611.21875 437.4344 611.40625 438.1844Q611.59375 438.9344 611.59375 440.21564Q611.59375 441.73126 611.28125 442.65314Q610.9844 443.575 610.3594 444.09064Q609.75 444.59064 608.7969 444.59064Q607.5625 444.59064 606.84375 443.7Q606.0 442.6375 606.0 440.21564ZM607.0781 440.21564Q607.0781 442.325 607.5781 443.02814Q608.0781 443.73126 608.7969 443.73126Q609.53125 443.73126 610.0156 443.02814Q610.5156 442.325 610.5156 440.21564Q610.5156 438.09064 610.0156 437.40314Q609.53125 436.7 608.78125 436.7Q608.0625 436.7 607.625 437.3094Q607.0781 438.09064 607.0781 440.21564ZM613.0 440.21564Q613.0 438.6844 613.3125 437.7625Q613.625 436.825 614.2344 436.325Q614.8594 435.825 615.7969 435.825Q616.4844 435.825 617.0 436.10626Q617.53125 436.3875 617.875 436.91876Q618.21875 437.4344 618.40625 438.1844Q618.59375 438.9344 618.59375 440.21564Q618.59375 441.73126 618.28125 442.65314Q617.9844 443.575 617.3594 444.09064Q616.75 444.59064 615.7969 444.59064Q614.5625 444.59064 613.84375 443.7Q613.0 442.6375 613.0 440.21564ZM614.0781 440.21564Q614.0781 442.325 614.5781 443.02814Q615.0781 443.73126 615.7969 443.73126Q616.53125 443.73126 617.0156 443.02814Q617.5156 442.325 617.5156 440.21564Q617.5156 438.09064 617.0156 437.40314Q616.53125 436.7 615.78125 436.7Q615.0625 436.7 614.625 437.3094Q614.0781 438.09064 614.0781 440.21564ZM620.0 440.21564Q620.0 438.6844 620.3125 437.7625Q620.625 436.825 621.2344 436.325Q621.8594 435.825 622.7969 435.825Q623.4844 435.825 624.0 436.10626Q624.53125 436.3875 624.875 436.91876Q625.21875 437.4344 625.40625 438.1844Q625.59375 438.9344 625.59375 440.21564Q625.59375 441.73126 625.28125 442.65314Q624.9844 443.575 624.3594 444.09064Q623.75 444.59064 622.7969 444.59064Q621.5625 444.59064 620.84375 443.7Q620.0 442.6375 620.0 440.21564ZM621.0781 440.21564Q621.0781 442.325 621.5781 443.02814Q622.0781 443.73126 622.7969 443.73126Q623.53125 443.73126 624.0156 443.02814Q624.5156 442.325 624.5156 440.21564Q624.5156 438.09064 624.0156 437.40314Q623.53125 436.7 622.78125 436.7Q622.0625 436.7 621.625 437.3094Q621.0781 438.09064 621.0781 440.21564ZM627.0 440.21564Q627.0 438.6844 627.3125 437.7625Q627.625 436.825 628.2344 436.325Q628.8594 435.825 629.7969 435.825Q630.4844 435.825 631.0 436.10626Q631.53125 436.3875 631.875 436.91876Q632.21875 437.4344 632.40625 438.1844Q632.59375 438.9344 632.59375 440.21564Q632.59375 441.73126 632.28125 442.65314Q631.9844 443.575 631.3594 444.09064Q630.75 444.59064 629.7969 444.59064Q628.5625 444.59064 627.84375 443.7Q627.0 442.6375 627.0 440.21564ZM628.0781 440.21564Q628.0781 442.325 628.5781 443.02814Q629.0781 443.73126 629.7969 443.73126Q630.53125 443.73126 631.0156 443.02814Q631.5156 442.325 631.5156 440.21564Q631.5156 438.09064 631.0156 437.40314Q630.53125 436.7 629.78125 436.7Q629.0625 436.7 628.625 437.3094Q628.0781 438.09064 628.0781 440.21564ZM634.0 440.21564Q634.0 438.6844 634.3125 437.7625Q634.625 436.825 635.2344 436.325Q635.8594 435.825 636.7969 435.825Q637.4844 435.825 638.0 436.10626Q638.53125 436.3875 638.875 436.91876Q639.21875 437.4344 639.40625 438.1844Q639.59375 438.9344 639.59375 440.21564Q639.59375 441.73126 639.28125 442.65314Q638.9844 443.575 638.3594 444.09064Q637.75 444.59064 636.7969 444.59064Q635.5625 444.59064 634.84375 443.7Q634.0 442.6375 634.0 440.21564ZM635.0781 440.21564Q635.0781 442.325 635.5781 443.02814Q636.0781 443.73126 636.7969 443.73126Q637.53125 443.73126 638.0156 443.02814Q638.5156 442.325 638.5156 440.21564Q638.5156 438.09064 638.0156 437.40314Q637.53125 436.7 636.78125 436.7Q636.0625 436.7 635.625 437.3094Q635.0781 438.09064 635.0781 440.21564Z" fill-rule="nonzero"/><path fill="#000000" d="M813.475 442.1844L814.5375 442.04376Q814.70935 442.9344 815.14685 443.34064Q815.58435 443.73126 816.20935 443.73126Q816.95935 443.73126 817.475 443.21564Q817.9906 442.7 817.9906 441.9344Q817.9906 441.21564 817.5062 440.7469Q817.0375 440.2625 816.3031 440.2625Q816.0062 440.2625 815.5531 440.3875L815.6781 439.45Q815.7875 439.46564 815.85 439.46564Q816.52185 439.46564 817.0531 439.1219Q817.6 438.7625 817.6 438.02814Q817.6 437.45 817.20935 437.075Q816.8187 436.6844 816.1937 436.6844Q815.58435 436.6844 815.1625 437.075Q814.7562 437.46564 814.64685 438.23126L813.58435 438.04376Q813.77185 436.9969 814.45935 436.41876Q815.14685 435.825 816.1625 435.825Q816.8656 435.825 817.45935 436.1375Q818.0531 436.4344 818.3656 436.95Q818.6781 437.46564 818.6781 438.0594Q818.6781 438.60626 818.3812 439.075Q818.08435 439.52814 817.5062 439.79376Q818.2562 439.96564 818.6781 440.52814Q819.1 441.075 819.1 441.91876Q819.1 443.04376 818.27185 443.825Q817.45935 444.60626 816.20935 444.60626Q815.08435 444.60626 814.33435 443.9344Q813.58435 443.2469 813.475 442.1844ZM820.475 440.21564Q820.475 438.6844 820.7875 437.7625Q821.1 436.825 821.70935 436.325Q822.33435 435.825 823.27185 435.825Q823.95935 435.825 824.475 436.10626Q825.0062 436.3875 825.35 436.91876Q825.6937 437.4344 825.8812 438.1844Q826.0687 438.9344 826.0687 440.21564Q826.0687 441.73126 825.7562 442.65314Q825.45935 443.575 824.83435 444.09064Q824.225 444.59064 823.27185 444.59064Q822.0375 444.59064 821.3187 443.7Q820.475 442.6375 820.475 440.21564ZM821.5531 440.21564Q821.5531 442.325 822.0531 443.02814Q822.5531 443.73126 823.27185 443.73126Q824.0062 443.73126 824.4906 443.02814Q824.9906 442.325 824.9906 440.21564Q824.9906 438.09064 824.4906 437.40314Q824.0062 436.7 823.2562 436.7Q822.5375 436.7 822.1 437.3094Q821.5531 438.09064 821.5531 440.21564ZM827.475 440.21564Q827.475 438.6844 827.7875 437.7625Q828.1 436.825 828.70935 436.325Q829.33435 435.825 830.27185 435.825Q830.95935 435.825 831.475 436.10626Q832.0062 436.3875 832.35 436.91876Q832.6937 437.4344 832.8812 438.1844Q833.0687 438.9344 833.0687 440.21564Q833.0687 441.73126 832.7562 442.65314Q832.45935 443.575 831.83435 444.09064Q831.225 444.59064 830.27185 444.59064Q829.0375 444.59064 828.3187 443.7Q827.475 442.6375 827.475 440.21564ZM828.5531 440.21564Q828.5531 442.325 829.0531 443.02814Q829.5531 443.73126 830.27185 443.73126Q831.0062 443.73126 831.4906 443.02814Q831.9906 442.325 831.9906 440.21564Q831.9906 438.09064 831.4906 437.40314Q831.0062 436.7 830.2562 436.7Q829.5375 436.7 829.1 437.3094Q828.5531 438.09064 828.5531 440.21564ZM835.0687 444.45L835.0687 443.2469L836.27185 443.2469L836.27185 444.45L835.0687 444.45ZM837.475 440.21564Q837.475 438.6844 837.7875 437.7625Q838.1 436.825 838.70935 436.325Q839.33435 435.825 840.27185 435.825Q840.95935 435.825 841.475 436.10626Q842.0062 436.3875 842.35 436.91876Q842.6937 437.4344 842.8812 438.1844Q843.0687 438.9344 843.0687 440.21564Q843.0687 441.73126 842.7562 442.65314Q842.45935 443.575 841.83435 444.09064Q841.225 444.59064 840.27185 444.59064Q839.0375 444.59064 838.3187 443.7Q837.475 442.6375 837.475 440.21564ZM838.5531 440.21564Q838.5531 442.325 839.0531 443.02814Q839.5531 443.73126 840.27185 443.73126Q841.0062 443.73126 841.4906 443.02814Q841.9906 442.325 841.9906 440.21564Q841.9906 438.09064 841.4906 437.40314Q841.0062 436.7 840.2562 436.7Q839.5375 436.7 839.1 437.3094Q838.5531 438.09064 838.5531 440.21564ZM844.475 440.21564Q844.475 438.6844 844.7875 437.7625Q845.1 436.825 845.70935 436.325Q846.33435 435.825 847.27185 435.825Q847.95935 435.825 848.475 436.10626Q849.0062 436.3875 849.35 436.91876Q849.6937 437.4344 849.8812 438.1844Q850.0687 438.9344 850.0687 440.21564Q850.0687 441.73126 849.7562 442.65314Q849.45935 443.575 848.83435 444.09064Q848.225 444.59064 847.27185 444.59064Q846.0375 444.59064 845.3187 443.7Q844.475 442.6375 844.475 440.21564ZM845.5531 440.21564Q845.5531 442.325 846.0531 443.02814Q846.5531 443.73126 847.27185 443.73126Q848.0062 443.73126 848.4906 443.02814Q848.9906 442.325 848.9906 440.21564Q848.9906 438.09064 848.4906 437.40314Q848.0062 436.7 847.2562 436.7Q846.5375 436.7 846.1 437.3094Q845.5531 438.09064 845.5531 440.21564ZM851.475 440.21564Q851.475 438.6844 851.7875 437.7625Q852.1 436.825 852.70935 436.325Q853.33435 435.825 854.27185 435.825Q854.95935 435.825 855.475 436.10626Q856.0062 436.3875 856.35 436.91876Q856.6937 437.4344 856.8812 438.1844Q857.0687 438.9344 857.0687 440.21564Q857.0687 441.73126 856.7562 442.65314Q856.45935 443.575 855.83435 444.09064Q855.225 444.59064 854.27185 444.59064Q853.0375 444.59064 852.3187 443.7Q851.475 442.6375 851.475 440.21564ZM852.5531 440.21564Q852.5531 442.325 853.0531 443.02814Q853.5531 443.73126 854.27185 443.73126Q855.0062 443.73126 855.4906 443.02814Q855.9906 442.325 855.9906 440.21564Q855.9906 438.09064 855.4906 437.40314Q855.0062 436.7 854.2562 436.7Q853.5375 436.7 853.1 437.3094Q852.5531 438.09064 852.5531 440.21564ZM858.475 440.21564Q858.475 438.6844 858.7875 437.7625Q859.1 436.825 859.70935 436.325Q860.33435 435.825 861.27185 435.825Q861.95935 435.825 862.475 436.10626Q863.0062 436.3875 863.35 436.91876Q863.6937 437.4344 863.8812 438.1844Q864.0687 438.9344 864.0687 440.21564Q864.0687 441.73126 863.7562 442.65314Q863.45935 443.575 862.83435 444.09064Q862.225 444.59064 861.27185 444.59064Q860.0375 444.59064 859.3187 443.7Q858.475 442.6375 858.475 440.21564ZM859.5531 440.21564Q859.5531 442.325 860.0531 443.02814Q860.5531 443.73126 861.27185 443.73126Q862.0062 443.73126 862.4906 443.02814Q862.9906 442.325 862.9906 440.21564Q862.9906 438.09064 862.4906 437.40314Q862.0062 436.7 861.2562 436.7Q860.5375 436.7 860.1 437.3094Q859.5531 438.09064 859.5531 440.21564ZM865.475 440.21564Q865.475 438.6844 865.7875 437.7625Q866.1 436.825 866.70935 436.325Q867.33435 435.825 868.27185 435.825Q868.95935 435.825 869.475 436.10626Q870.0062 436.3875 870.35 436.91876Q870.6937 437.4344 870.8812 438.1844Q871.0687 438.9344 871.0687 440.21564Q871.0687 441.73126 870.7562 442.65314Q870.45935 443.575 869.83435 444.09064Q869.225 444.59064 868.27185 444.59064Q867.0375 444.59064 866.3187 443.7Q865.475 442.6375 865.475 440.21564ZM866.5531 440.21564Q866.5531 442.325 867.0531 443.02814Q867.5531 443.73126 868.27185 443.73126Q869.0062 443.73126 869.4906 443.02814Q869.9906 442.325 869.9906 440.21564Q869.9906 438.09064 869.4906 437.40314Q869.0062 436.7 868.2562 436.7Q867.5375 436.7 867.1 437.3094Q866.5531 438.09064 866.5531 440.21564ZM872.475 440.21564Q872.475 438.6844 872.7875 437.7625Q873.1 436.825 873.70935 436.325Q874.33435 435.825 875.27185 435.825Q875.95935 435.825 876.475 436.10626Q877.0062 436.3875 877.35 436.91876Q877.6937 437.4344 877.8812 438.1844Q878.0687 438.9344 878.0687 440.21564Q878.0687 441.73126 877.7562 442.65314Q877.45935 443.575 876.83435 444.09064Q876.225 444.59064 875.27185 444.59064Q874.0375 444.59064 873.3187 443.7Q872.475 442.6375 872.475 440.21564ZM873.5531 440.21564Q873.5531 442.325 874.0531 443.02814Q874.5531 443.73126 875.27185 443.73126Q876.0062 443.73126 876.4906 443.02814Q876.9906 442.325 876.9906 440.21564Q876.9906 438.09064 876.4906 437.40314Q876.0062 436.7 875.2562 436.7Q874.5375 436.7 874.1 437.3094Q873.5531 438.09064 873.5531 440.21564Z" fill-rule="nonzero"/><path fill="#4285f4" d="M500.5 65.25C500.5 64.697716 500.94772 64.25 501.5 64.25L511.5 64.25C512.0523 64.25 512.5 64.697716 512.5 65.25L512.5 75.25C512.5 75.802284 512.0523 76.25 511.5 76.25L501.5 76.25C500.94772 76.25 500.5 75.802284 500.5 75.25Z" fill-rule="nonzero"/><path fill="#1a1a1a" d="M522.4375 74.25L520.53125 68.03125L521.625 68.03125L522.6094 71.625L522.9844 72.953125Q523.0156 72.859375 523.3125 71.671875L524.2969 68.03125L525.375 68.03125L526.3125 71.640625L526.625 72.828125L526.9844 71.625L528.0469 68.03125L529.0781 68.03125L527.125 74.25L526.03125 74.25L525.0469 70.515625L524.7969 69.46875L523.5469 74.25L522.4375 74.25ZM530.28125 74.25L530.28125 68.03125L531.2344 68.03125L531.2344 68.96875Q531.59375 68.3125 531.8906 68.109375Q532.2031 67.890625 532.5781 67.890625Q533.1094 67.890625 533.65625 68.21875L533.2969 69.203125Q532.90625 68.96875 532.53125 68.96875Q532.1719 68.96875 531.8906 69.1875Q531.625 69.390625 531.5156 69.765625Q531.3281 70.328125 531.3281 70.984375L531.3281 74.25L530.28125 74.25ZM534.2969 66.875L534.2969 65.65625L535.3594 65.65625L535.3594 66.875L534.2969 66.875ZM534.2969 74.25L534.2969 68.03125L535.3594 68.03125L535.3594 74.25L534.2969 74.25ZM539.59375 73.3125L539.75 74.234375Q539.2969 74.328125 538.9531 74.328125Q538.375 74.328125 538.0625 74.15625Q537.75 73.96875 537.6094 73.671875Q537.4844 73.375 537.4844 72.421875L537.4844 68.84375L536.71875 68.84375L536.71875 68.03125L537.4844 68.03125L537.4844 66.484375L538.53125 65.859375L538.53125 68.03125L539.59375 68.03125L539.59375 68.84375L538.53125 68.84375L538.53125 72.484375Q538.53125 72.9375 538.5781 73.0625Q538.6406 73.1875 538.7656 73.265625Q538.8906 73.34375 539.125 73.34375Q539.3125 73.34375 539.59375 73.3125ZM544.5469 72.25L545.6406 72.375Q545.3906 73.328125 544.6875 73.859375Q543.9844 74.390625 542.90625 74.390625Q541.5469 74.390625 540.7344 73.546875Q539.9375 72.703125 539.9375 71.1875Q539.9375 69.625 540.75 68.765625Q541.5625 67.890625 542.84375 67.890625Q544.09375 67.890625 544.875 68.734375Q545.6719 69.578125 545.6719 71.125Q545.6719 71.21875 545.6719 71.40625L541.03125 71.40625Q541.09375 72.4375 541.6094 72.984375Q542.125 73.515625 542.90625 73.515625Q543.4844 73.515625 543.8906 73.21875Q544.3125 72.90625 544.5469 72.25ZM541.09375 70.546875L544.5625 70.546875Q544.5 69.75 544.1719 69.359375Q543.65625 68.75 542.8594 68.75Q542.125 68.75 541.625 69.234375Q541.1406 69.71875 541.09375 70.546875Z" fill-rule="nonzero"/><path fill="#ea4335" d="M562.5 65.25C562.5 64.697716 562.9477 64.25 563.5 64.25L573.5 64.25C574.0523 64.25 574.5 64.697716 574.5 65.25L574.5 75.25C574.5 75.802284 574.0523 76.25 573.5 76.25L563.5 76.25C562.9477 76.25 562.5 75.802284 562.5 75.25Z" fill-rule="nonzero"/><path fill="#1a1a1a" d="M583.28125 74.25L583.28125 68.03125L584.2344 68.03125L584.2344 68.96875Q584.59375 68.3125 584.8906 68.109375Q585.2031 67.890625 585.5781 67.890625Q586.1094 67.890625 586.65625 68.21875L586.2969 69.203125Q585.90625 68.96875 585.53125 68.96875Q585.1719 68.96875 584.8906 69.1875Q584.625 69.390625 584.5156 69.765625Q584.3281 70.328125 584.3281 70.984375L584.3281 74.25L583.28125 74.25ZM591.5469 72.25L592.6406 72.375Q592.3906 73.328125 591.6875 73.859375Q590.9844 74.390625 589.90625 74.390625Q588.5469 74.390625 587.7344 73.546875Q586.9375 72.703125 586.9375 71.1875Q586.9375 69.625 587.75 68.765625Q588.5625 67.890625 589.84375 67.890625Q591.09375 67.890625 591.875 68.734375Q592.6719 69.578125 592.6719 71.125Q592.6719 71.21875 592.6719 71.40625L588.03125 71.40625Q588.09375 72.4375 588.6094 72.984375Q589.125 73.515625 589.90625 73.515625Q590.4844 73.515625 590.8906 73.21875Q591.3125 72.90625 591.5469 72.25ZM588.09375 70.546875L591.5625 70.546875Q591.5 69.75 591.1719 69.359375Q590.65625 68.75 589.8594 68.75Q589.125 68.75 588.625 69.234375Q588.1406 69.71875 588.09375 70.546875ZM598.3594 73.484375Q597.7656 73.984375 597.21875 74.1875Q596.6875 74.390625 596.0625 74.390625Q595.03125 74.390625 594.4844 73.890625Q593.9375 73.390625 593.9375 72.609375Q593.9375 72.15625 594.1406 71.78125Q594.34375 71.390625 594.6875 71.171875Q595.03125 70.9375 595.4531 70.828125Q595.75 70.734375 596.3906 70.65625Q597.65625 70.515625 598.2656 70.296875Q598.2656 70.078125 598.2656 70.03125Q598.2656 69.375 597.96875 69.109375Q597.5625 68.765625 596.7656 68.765625Q596.03125 68.765625 595.6719 69.03125Q595.3125 69.28125 595.1406 69.9375L594.1094 69.796875Q594.25 69.140625 594.5781 68.734375Q594.90625 68.328125 595.5156 68.109375Q596.125 67.890625 596.9219 67.890625Q597.71875 67.890625 598.21875 68.078125Q598.71875 68.265625 598.9531 68.546875Q599.1875 68.828125 599.28125 69.265625Q599.3281 69.53125 599.3281 70.234375L599.3281 71.640625Q599.3281 73.109375 599.3906 73.5Q599.46875 73.890625 599.6719 74.25L598.5625 74.25Q598.40625 73.921875 598.3594 73.484375ZM598.2656 71.125Q597.6875 71.359375 596.5469 71.53125Q595.8906 71.625 595.625 71.75Q595.3594 71.859375 595.2031 72.078125Q595.0625 72.296875 595.0625 72.578125Q595.0625 73.0 595.375 73.28125Q595.7031 73.5625 596.3125 73.5625Q596.9219 73.5625 597.3906 73.296875Q597.875 73.03125 598.09375 72.5625Q598.2656 72.203125 598.2656 71.515625L598.2656 71.125ZM605.3281 74.25L605.3281 73.46875Q604.7344 74.390625 603.59375 74.390625Q602.84375 74.390625 602.21875 73.984375Q601.59375 73.5625 601.25 72.828125Q600.90625 72.09375 600.90625 71.140625Q600.90625 70.21875 601.21875 69.453125Q601.53125 68.6875 602.15625 68.296875Q602.78125 67.890625 603.5469 67.890625Q604.1094 67.890625 604.5469 68.125Q604.9844 68.359375 605.2656 68.734375L605.2656 65.65625L606.3125 65.65625L606.3125 74.25L605.3281 74.25ZM602.0 71.140625Q602.0 72.34375 602.5 72.9375Q603.0 73.515625 603.6875 73.515625Q604.375 73.515625 604.8594 72.953125Q605.34375 72.390625 605.34375 71.234375Q605.34375 69.953125 604.84375 69.359375Q604.3594 68.765625 603.6406 68.765625Q602.9375 68.765625 602.46875 69.34375Q602.0 69.90625 602.0 71.140625Z" fill-rule="nonzero"/><path fill="#757575" d="M24.8625 46.51875L24.8625 32.175L26.471874 32.175L26.471874 33.51875Q27.034374 32.7375 27.7375 32.346874Q28.45625 31.940624 29.471874 31.940624Q30.8 31.940624 31.815624 32.628124Q32.83125 33.315624 33.346874 34.565624Q33.878124 35.8 33.878124 37.284374Q33.878124 38.878124 33.3 40.159374Q32.7375 41.425 31.64375 42.1125Q30.55 42.784374 29.346874 42.784374Q28.471874 42.784374 27.76875 42.409374Q27.08125 42.034374 26.628124 41.471874L26.628124 46.51875L24.8625 46.51875ZM26.45625 37.425Q26.45625 39.425 27.26875 40.378124Q28.08125 41.33125 29.2375 41.33125Q30.409374 41.33125 31.2375 40.346874Q32.08125 39.3625 32.08125 37.26875Q32.08125 35.3 31.253124 34.315624Q30.440624 33.315624 29.315624 33.315624Q28.190624 33.315624 27.315624 34.378124Q26.45625 35.425 26.45625 37.425ZM35.8625 42.55L35.8625 28.2375L37.628124 28.2375L37.628124 33.3625Q38.8625 31.940624 40.7375 31.940624Q41.878124 31.940624 42.721874 32.39375Q43.58125 32.846874 43.940624 33.659374Q44.315624 34.45625 44.315624 35.971874L44.315624 42.55L42.565624 42.55L42.565624 35.971874Q42.565624 34.659374 41.9875 34.065624Q41.409374 33.45625 40.378124 33.45625Q39.596874 33.45625 38.89375 33.8625Q38.20625 34.26875 37.909374 34.971874Q37.628124 35.659374 37.628124 36.878124L37.628124 42.55L35.8625 42.55ZM46.8625 46.51875L46.8625 32.175L48.471874 32.175L48.471874 33.51875Q49.034374 32.7375 49.7375 32.346874Q50.45625 31.940624 51.471874 31.940624Q52.8 31.940624 53.815624 32.628124Q54.83125 33.315624 55.346874 34.565624Q55.878124 35.8 55.878124 37.284374Q55.878124 38.878124 55.3 40.159374Q54.7375 41.425 53.64375 42.1125Q52.55 42.784374 51.346874 42.784374Q50.471874 42.784374 49.76875 42.409374Q49.08125 42.034374 48.628124 41.471874L48.628124 46.51875L46.8625 46.51875ZM48.45625 37.425Q48.45625 39.425 49.26875 40.378124Q50.08125 41.33125 51.2375 41.33125Q52.409374 41.33125 53.2375 40.346874Q54.08125 39.3625 54.08125 37.26875Q54.08125 35.3 53.253124 34.315624Q52.440624 33.315624 51.315624 33.315624Q50.190624 33.315624 49.315624 34.378124Q48.45625 35.425 48.45625 37.425ZM56.253124 46.51875L56.253124 45.253124L67.89375 45.253124L67.89375 46.51875L56.253124 46.51875ZM75.97188 39.20625L77.78438 39.440624Q77.3625 41.01875 76.19063 41.909374Q75.03438 42.784374 73.22188 42.784374Q70.95625 42.784374 69.6125 41.39375Q68.28438 39.9875 68.28438 37.45625Q68.28438 34.83125 69.62813 33.39375Q70.97188 31.940624 73.12813 31.940624Q75.20625 31.940624 76.51875 33.3625Q77.84688 34.76875 77.84688 37.346874Q77.84688 37.503124 77.83125 37.815624L70.09688 37.815624Q70.19063 39.51875 71.06563 40.425Q71.94063 41.33125 73.2375 41.33125Q74.20625 41.33125 74.87813 40.83125Q75.56563 40.315624 75.97188 39.20625ZM70.19063 36.3625L75.9875 36.3625Q75.87813 35.065624 75.33125 34.409374Q74.4875 33.39375 73.14375 33.39375Q71.94063 33.39375 71.1125 34.20625Q70.28438 35.003124 70.19063 36.3625ZM79.8625 42.55L79.8625 32.175L81.44063 32.175L81.44063 33.628124Q81.925 32.878124 82.7375 32.409374Q83.55 31.940624 84.58125 31.940624Q85.7375 31.940624 86.47188 32.425Q87.20625 32.89375 87.51875 33.753124Q88.75313 31.940624 90.72188 31.940624Q92.26875 31.940624 93.09688 32.8Q93.925 33.659374 93.925 35.425L93.925 42.55L92.175 42.55L92.175 36.01875Q92.175 34.95625 92.00313 34.503124Q91.83125 34.034374 91.37813 33.753124Q90.94063 33.471874 90.33125 33.471874Q89.2375 33.471874 88.50313 34.20625Q87.78438 34.925 87.78438 36.51875L87.78438 42.55L86.03438 42.55L86.03438 35.815624Q86.03438 34.64375 85.59688 34.065624Q85.175 33.471874 84.19063 33.471874Q83.45625 33.471874 82.81563 33.8625Q82.19063 34.253124 81.90938 35.003124Q81.62813 35.753124 81.62813 37.175L81.62813 42.55L79.8625 42.55ZM98.4875 42.55L96.8625 42.55L96.8625 28.2375L98.6125 28.2375L98.6125 33.346874Q99.7375 31.940624 101.45625 31.940624Q102.40938 31.940624 103.26875 32.33125Q104.12813 32.721874 104.675 33.425Q105.22188 34.1125 105.53438 35.096874Q105.84688 36.08125 105.84688 37.20625Q105.84688 39.878124 104.53438 41.33125Q103.22188 42.784374 101.37813 42.784374Q99.53438 42.784374 98.4875 41.253124L98.4875 42.55ZM98.47188 37.284374Q98.47188 39.14375 98.97188 39.9875Q99.81563 41.33125 101.22188 41.33125Q102.37813 41.33125 103.20625 40.33125Q104.05 39.33125 104.05 37.346874Q104.05 35.315624 103.2375 34.3625Q102.44063 33.39375 101.3 33.39375Q100.14375 33.39375 99.3 34.39375Q98.47188 35.39375 98.47188 37.284374ZM114.97188 39.20625L116.78438 39.440624Q116.3625 41.01875 115.19063 41.909374Q114.03438 42.784374 112.22188 42.784374Q109.95625 42.784374 108.6125 41.39375Q107.28438 39.9875 107.28438 37.45625Q107.28438 34.83125 108.62813 33.39375Q109.97188 31.940624 112.12813 31.940624Q114.20625 31.940624 115.51875 33.3625Q116.84688 34.76875 116.84688 37.346874Q116.84688 37.503124 116.83125 37.815624L109.09688 37.815624Q109.19063 39.51875 110.06563 40.425Q110.94063 41.33125 112.2375 41.33125Q113.20625 41.33125 113.87813 40.83125Q114.56563 40.315624 114.97188 39.20625ZM109.19063 36.3625L114.9875 36.3625Q114.87813 35.065624 114.33125 34.409374Q113.4875 33.39375 112.14375 33.39375Q110.94063 33.39375 110.1125 34.20625Q109.28438 35.003124 109.19063 36.3625ZM125.59688 42.55L125.59688 41.2375Q124.6125 42.784374 122.69063 42.784374Q121.45625 42.784374 120.40938 42.096874Q119.37813 41.409374 118.8 40.190624Q118.2375 38.971874 118.2375 37.378124Q118.2375 35.815624 118.75313 34.55Q119.26875 33.284374 120.3 32.6125Q121.34688 31.940624 122.6125 31.940624Q123.55 31.940624 124.28438 32.346874Q125.01875 32.7375 125.4875 33.3625L125.4875 28.2375L127.22188 28.2375L127.22188 42.55L125.59688 42.55ZM120.03438 37.378124Q120.03438 39.3625 120.87813 40.346874Q121.72188 41.33125 122.8625 41.33125Q124.01875 41.33125 124.81563 40.39375Q125.62813 39.45625 125.62813 37.51875Q125.62813 35.39375 124.8 34.39375Q123.9875 33.39375 122.78438 33.39375Q121.6125 33.39375 120.81563 34.3625Q120.03438 35.315624 120.03438 37.378124ZM136.59688 42.55L136.59688 41.2375Q135.6125 42.784374 133.69063 42.784374Q132.45625 42.784374 131.40938 42.096874Q130.37813 41.409374 129.8 40.190624Q129.2375 38.971874 129.2375 37.378124Q129.2375 35.815624 129.75313 34.55Q130.26875 33.284374 131.3 32.6125Q132.34688 31.940624 133.6125 31.940624Q134.55 31.940624 135.28438 32.346874Q136.01875 32.7375 136.4875 33.3625L136.4875 28.2375L138.22188 28.2375L138.22188 42.55L136.59688 42.55ZM131.03438 37.378124Q131.03438 39.3625 131.87813 40.346874Q132.72188 41.33125 133.8625 41.33125Q135.01875 41.33125 135.81563 40.39375Q136.62813 39.45625 136.62813 37.51875Q136.62813 35.39375 135.8 34.39375Q134.9875 33.39375 133.78438 33.39375Q132.6125 33.39375 131.81563 34.3625Q131.03438 35.315624 131.03438 37.378124ZM147.97188 39.20625L149.78438 39.440624Q149.3625 41.01875 148.19063 41.909374Q147.03438 42.784374 145.22188 42.784374Q142.95625 42.784374 141.6125 41.39375Q140.28438 39.9875 140.28438 37.45625Q140.28438 34.83125 141.62813 33.39375Q142.97188 31.940624 145.12813 31.940624Q147.20625 31.940624 148.51875 33.3625Q149.84688 34.76875 149.84688 37.346874Q149.84688 37.503124 149.83125 37.815624L142.09688 37.815624Q142.19063 39.51875 143.06563 40.425Q143.94063 41.33125 145.2375 41.33125Q146.20625 41.33125 146.87813 40.83125Q147.56563 40.315624 147.97188 39.20625ZM142.19063 36.3625L147.9875 36.3625Q147.87813 35.065624 147.33125 34.409374Q146.4875 33.39375 145.14375 33.39375Q143.94063 33.39375 143.1125 34.20625Q142.28438 35.003124 142.19063 36.3625ZM158.59688 42.55L158.59688 41.2375Q157.6125 42.784374 155.69063 42.784374Q154.45625 42.784374 153.40938 42.096874Q152.37813 41.409374 151.8 40.190624Q151.2375 38.971874 151.2375 37.378124Q151.2375 35.815624 151.75313 34.55Q152.26875 33.284374 153.3 32.6125Q154.34688 31.940624 155.6125 31.940624Q156.55 31.940624 157.28438 32.346874Q158.01875 32.7375 158.4875 33.3625L158.4875 28.2375L160.22188 28.2375L160.22188 42.55L158.59688 42.55ZM153.03438 37.378124Q153.03438 39.3625 153.87813 40.346874Q154.72188 41.33125 155.8625 41.33125Q157.01875 41.33125 157.81563 40.39375Q158.62813 39.45625 158.62813 37.51875Q158.62813 35.39375 157.8 34.39375Q156.9875 33.39375 155.78438 33.39375Q154.6125 33.39375 153.81563 34.3625Q153.03438 35.315624 153.03438 37.378124ZM161.25313 46.51875L161.25313 45.253124L172.89375 45.253124L172.89375 46.51875L161.25313 46.51875ZM180.59688 42.55L180.59688 41.2375Q179.6125 42.784374 177.69063 42.784374Q176.45625 42.784374 175.40938 42.096874Q174.37813 41.409374 173.8 40.190624Q173.2375 38.971874 173.2375 37.378124Q173.2375 35.815624 173.75313 34.55Q174.26875 33.284374 175.3 32.6125Q176.34688 31.940624 177.6125 31.940624Q178.55 31.940624 179.28438 32.346874Q180.01875 32.7375 180.4875 33.3625L180.4875 28.2375L182.22188 28.2375L182.22188 42.55L180.59688 42.55ZM175.03438 37.378124Q175.03438 39.3625 175.87813 40.346874Q176.72188 41.33125 177.8625 41.33125Q179.01875 41.33125 179.81563 40.39375Q180.62813 39.45625 180.62813 37.51875Q180.62813 35.39375 179.8 34.39375Q178.9875 33.39375 177.78438 33.39375Q176.6125 33.39375 175.81563 34.3625Q175.03438 35.315624 175.03438 37.378124ZM186.4875 42.55L184.8625 42.55L184.8625 28.2375L186.6125 28.2375L186.6125 33.346874Q187.7375 31.940624 189.45625 31.940624Q190.40938 31.940624 191.26875 32.33125Q192.12813 32.721874 192.675 33.425Q193.22188 34.1125 193.53438 35.096874Q193.84688 36.08125 193.84688 37.20625Q193.84688 39.878124 192.53438 41.33125Q191.22188 42.784374 189.37813 42.784374Q187.53438 42.784374 186.4875 41.253124L186.4875 42.55ZM186.47188 37.284374Q186.47188 39.14375 186.97188 39.9875Q187.81563 41.33125 189.22188 41.33125Q190.37813 41.33125 191.20625 40.33125Q192.05 39.33125 192.05 37.346874Q192.05 35.315624 191.2375 34.3625Q190.44063 33.39375 189.3 33.39375Q188.14375 33.39375 187.3 34.39375Q186.47188 35.39375 186.47188 37.284374ZM194.25313 46.51875L194.25313 45.253124L205.89375 45.253124L205.89375 46.51875L194.25313 46.51875ZM208.4875 42.55L206.8625 42.55L206.8625 28.2375L208.6125 28.2375L208.6125 33.346874Q209.7375 31.940624 211.45625 31.940624Q212.40938 31.940624 213.26875 32.33125Q214.12813 32.721874 214.675 33.425Q215.22188 34.1125 215.53438 35.096874Q215.84688 36.08125 215.84688 37.20625Q215.84688 39.878124 214.53438 41.33125Q213.22188 42.784374 211.37813 42.784374Q209.53438 42.784374 208.4875 41.253124L208.4875 42.55ZM208.47188 37.284374Q208.47188 39.14375 208.97188 39.9875Q209.81563 41.33125 211.22188 41.33125Q212.37813 41.33125 213.20625 40.33125Q214.05 39.33125 214.05 37.346874Q214.05 35.315624 213.2375 34.3625Q212.44063 33.39375 211.3 33.39375Q210.14375 33.39375 209.3 34.39375Q208.47188 35.39375 208.47188 37.284374ZM224.97188 39.20625L226.78438 39.440624Q226.3625 41.01875 225.19063 41.909374Q224.03438 42.784374 222.22188 42.784374Q219.95625 42.784374 218.6125 41.39375Q217.28438 39.9875 217.28438 37.45625Q217.28438 34.83125 218.62813 33.39375Q219.97188 31.940624 222.12813 31.940624Q224.20625 31.940624 225.51875 33.3625Q226.84688 34.76875 226.84688 37.346874Q226.84688 37.503124 226.83125 37.815624L219.09688 37.815624Q219.19063 39.51875 220.06563 40.425Q220.94063 41.33125 222.2375 41.33125Q223.20625 41.33125 223.87813 40.83125Q224.56563 40.315624 224.97188 39.20625ZM219.19063 36.3625L224.9875 36.3625Q224.87813 35.065624 224.33125 34.409374Q223.4875 33.39375 222.14375 33.39375Q220.94063 33.39375 220.1125 34.20625Q219.28438 35.003124 219.19063 36.3625ZM228.8625 42.55L228.8625 32.175L230.45625 32.175L230.45625 33.659374Q231.59688 31.940624 233.75313 31.940624Q234.69063 31.940624 235.47188 32.284374Q236.26875 32.6125 236.65938 33.159374Q237.05 33.70625 237.20625 34.45625Q237.3 34.95625 237.3 36.175L237.3 42.55L235.53438 42.55L235.53438 36.2375Q235.53438 35.159374 235.33125 34.628124Q235.12813 34.096874 234.59688 33.784374Q234.08125 33.471874 233.37813 33.471874Q232.25313 33.471874 231.44063 34.190624Q230.62813 34.89375 230.62813 36.878124L230.62813 42.55L228.8625 42.55ZM246.64375 38.753124L248.3625 38.971874Q248.08125 40.76875 246.90938 41.784374Q245.75313 42.784374 244.05 42.784374Q241.925 42.784374 240.62813 41.39375Q239.33125 40.003124 239.33125 37.409374Q239.33125 35.721874 239.87813 34.471874Q240.44063 33.20625 241.58125 32.58125Q242.72188 31.940624 244.06563 31.940624Q245.75313 31.940624 246.81563 32.8Q247.89375 33.659374 248.20625 35.221874L246.4875 35.4875Q246.25313 34.440624 245.62813 33.925Q245.00313 33.39375 244.12813 33.39375Q242.8 33.39375 241.97188 34.346874Q241.14375 35.3 241.14375 37.346874Q241.14375 39.440624 241.94063 40.39375Q242.7375 41.33125 244.03438 41.33125Q245.06563 41.33125 245.75313 40.70625Q246.45625 40.065624 246.64375 38.753124ZM249.8625 42.55L249.8625 28.2375L251.62813 28.2375L251.62813 33.3625Q252.8625 31.940624 254.7375 31.940624Q255.87813 31.940624 256.72186 32.39375Q257.58124 32.846874 257.9406 33.659374Q258.3156 34.45625 258.3156 35.971874L258.3156 42.55L256.5656 42.55L256.5656 35.971874Q256.5656 34.659374 255.9875 34.065624Q255.40938 33.45625 254.37813 33.45625Q253.59688 33.45625 252.89375 33.8625Q252.20625 34.26875 251.90938 34.971874Q251.62813 35.659374 251.62813 36.878124L251.62813 42.55L249.8625 42.55ZM260.8625 42.55L260.8625 32.175L262.4406 32.175L262.4406 33.628124Q262.925 32.878124 263.7375 32.409374Q264.55 31.940624 265.58124 31.940624Q266.7375 31.940624 267.47186 32.425Q268.20624 32.89375 268.51874 33.753124Q269.7531 31.940624 271.72186 31.940624Q273.26874 31.940624 274.09686 32.8Q274.925 33.659374 274.925 35.425L274.925 42.55L273.175 42.55L273.175 36.01875Q273.175 34.95625 273.0031 34.503124Q272.83124 34.034374 272.3781 33.753124Q271.9406 33.471874 271.33124 33.471874Q270.2375 33.471874 269.5031 34.20625Q268.78436 34.925 268.78436 36.51875L268.78436 42.55L267.03436 42.55L267.03436 35.815624Q267.03436 34.64375 266.59686 34.065624Q266.175 33.471874 265.1906 33.471874Q264.45624 33.471874 263.8156 33.8625Q263.1906 34.253124 262.90936 35.003124Q262.6281 35.753124 262.6281 37.175L262.6281 42.55L260.8625 42.55ZM284.64374 41.26875Q283.65936 42.096874 282.7531 42.440624Q281.84686 42.784374 280.8156 42.784374Q279.1125 42.784374 278.1906 41.95625Q277.26874 41.1125 277.26874 39.815624Q277.26874 39.05 277.6125 38.425Q277.97186 37.8 278.53436 37.425Q279.09686 37.034374 279.8 36.83125Q280.3156 36.70625 281.3625 36.565624Q283.4875 36.315624 284.4875 35.971874Q284.5031 35.6125 284.5031 35.503124Q284.5031 34.440624 284.0031 33.9875Q283.33124 33.39375 282.0031 33.39375Q280.7531 33.39375 280.15936 33.83125Q279.58124 34.26875 279.3 35.378124L277.58124 35.14375Q277.8156 34.034374 278.34686 33.3625Q278.8781 32.675 279.89374 32.315624Q280.90936 31.940624 282.2531 31.940624Q283.58124 31.940624 284.40936 32.253124Q285.2375 32.565624 285.6281 33.05Q286.01874 33.51875 286.175 34.2375Q286.26874 34.690624 286.26874 35.8625L286.26874 38.20625Q286.26874 40.659374 286.3781 41.315624Q286.4875 41.95625 286.83124 42.55L284.9875 42.55Q284.72186 42.003124 284.64374 41.26875ZM284.4875 37.346874Q283.53436 37.7375 281.6125 38.003124Q280.53436 38.159374 280.08124 38.3625Q279.64374 38.55 279.39374 38.925Q279.14374 39.3 279.14374 39.76875Q279.14374 40.471874 279.675 40.940624Q280.20624 41.409374 281.2375 41.409374Q282.2531 41.409374 283.03436 40.971874Q283.83124 40.51875 284.20624 39.753124Q284.4875 39.14375 284.4875 37.9875L284.4875 37.346874ZM288.84686 42.55L288.84686 32.175L290.425 32.175L290.425 33.753124Q291.03436 32.64375 291.55 32.3Q292.0656 31.940624 292.675 31.940624Q293.5656 31.940624 294.4875 32.503124L293.8781 34.14375Q293.2375 33.753124 292.59686 33.753124Q292.01874 33.753124 291.55 34.1125Q291.09686 34.45625 290.89374 35.065624Q290.6125 36.003124 290.6125 37.1125L290.6125 42.55L288.84686 42.55ZM295.8781 42.55L295.8781 28.2375L297.64374 28.2375L297.64374 36.39375L301.8 32.175L304.0656 32.175L300.1125 36.01875L304.47186 42.55L302.3 42.55L298.8781 37.253124L297.64374 38.440624L297.64374 42.55L295.8781 42.55Z" fill-rule="nonzero"/></svg>